<svg width="170" height="70" viewBox="0 0 170 70" fill="none" xmlns="http://www.w3.org/2000/svg">
<rect y="-5" width="170" height="80" rx="8" fill="white"/>
<g clip-path="url(#clip0_361_220)">
<path d="M136.988 31.5822C136.815 31.2183 136.716 30.8236 136.695 30.4209C136.675 30.0181 136.733 29.6152 136.867 29.2353C137.001 28.8554 137.208 28.506 137.477 28.207C137.745 27.9081 138.069 27.6655 138.431 27.4932L141.599 25.9744L117.022 14.0916L92.3709 25.977L95.5255 27.4919C95.8865 27.6648 96.2101 27.9078 96.4779 28.2071C96.7456 28.5063 96.9523 28.856 97.0859 29.2359C97.2195 29.6159 97.2776 30.0187 97.2567 30.4213C97.2358 30.8239 97.1363 31.2184 96.9641 31.5822L90.6724 28.5618C90.1872 28.3299 89.7772 27.9637 89.4903 27.5059C89.2034 27.048 89.0513 26.5174 89.0518 25.9757C89.0522 25.434 89.2052 24.9035 89.4929 24.4462C89.7806 23.9888 90.1912 23.6233 90.6768 23.3923L115.795 11.2793C116.176 11.0955 116.594 10.9997 117.016 10.999C117.439 10.9983 117.857 11.0927 118.239 11.2753L143.3 23.3923C143.785 23.6248 144.195 23.9915 144.481 24.4497C144.767 24.9079 144.919 25.4387 144.918 25.9803C144.917 26.5219 144.763 27.0521 144.475 27.5091C144.187 27.9661 143.776 28.3312 143.29 28.5618L136.985 31.5831L136.988 31.5822Z" fill="#3DA3C1"/>
<path d="M117.883 58.7951C117.601 58.93 117.293 59 116.981 59C116.67 59 116.362 58.93 116.08 58.7951L90.5934 46.6169C90.1133 46.3886 89.7064 46.0287 89.4192 45.5783C89.1319 45.1279 88.976 44.6051 88.969 44.0696C88.962 43.5341 89.1044 43.0074 89.3798 42.5496C89.6552 42.0917 90.0525 41.7212 90.5266 41.4802L96.8411 38.2598C97.0219 38.6193 97.1305 39.0113 97.1609 39.4132C97.1913 39.8152 97.1427 40.2192 97.0181 40.6022C96.8934 40.9852 96.6951 41.3397 96.4345 41.6452C96.1739 41.9508 95.8561 42.2014 95.4992 42.3829L92.2782 44.0242L116.983 55.8276L141.687 44.0264L138.466 42.3851C138.109 42.2037 137.791 41.953 137.53 41.6473C137.269 41.3415 137.071 40.9869 136.946 40.6036C136.822 40.2203 136.773 39.816 136.804 39.4138C136.834 39.0115 136.943 38.6194 137.124 38.2598L143.351 41.4336C143.801 41.6529 144.188 41.9847 144.475 42.3974C144.761 42.8102 144.939 43.2902 144.99 43.7917C145.041 44.3731 144.913 44.956 144.624 45.4615C144.335 45.967 143.899 46.3707 143.375 46.6178L117.885 58.7978L117.883 58.7951Z" fill="#6AB380"/>
<path d="M118.509 42.2764V30.5617L124.018 33.3714C124.199 33.0119 124.308 32.62 124.339 32.218C124.369 31.8161 124.32 31.412 124.196 31.029C124.071 30.646 123.873 30.2915 123.612 29.9859C123.352 29.6804 123.034 29.4297 122.677 29.2483L120.37 28.0723L127.853 24.3511C127.493 23.621 126.861 23.0646 126.095 22.8039C125.33 22.5433 124.493 22.5995 123.768 22.9604L118.509 25.5776V24.6279C118.508 23.9941 118.372 23.3679 118.11 22.7922C117.847 22.2166 117.464 21.7051 116.986 21.293C116.508 21.7055 116.123 22.2177 115.86 22.7944C115.596 23.3711 115.459 23.9985 115.459 24.6336V25.6126L109.787 22.9032C109.056 22.5538 108.218 22.5109 107.457 22.7838C106.695 23.0567 106.071 23.6232 105.723 24.3591L113.555 28.0994L111.298 29.25C110.941 29.4313 110.622 29.6819 110.361 29.9875C110.1 30.2932 109.902 30.6479 109.777 31.0312C109.652 31.4144 109.603 31.8188 109.634 32.2211C109.664 32.6234 109.773 33.0157 109.954 33.3754L115.455 30.5723V42.2711L103.151 35.9774V35.9939C103.152 37.0252 103.436 38.0362 103.971 38.9147C104.507 39.7931 105.273 40.5047 106.185 40.9705L113.604 44.7653L108.531 47.3213C108.896 48.0484 109.531 48.6002 110.298 48.8558C111.065 49.1114 111.902 49.0501 112.624 48.6853L116.977 46.486L121.242 48.6809C121.962 49.0509 122.798 49.1181 123.567 48.8678C124.336 48.6174 124.975 48.07 125.345 47.3452L120.343 44.7724L127.767 41.0059C128.683 40.5418 129.454 39.8299 129.992 38.9497C130.531 38.0695 130.816 37.0557 130.817 36.0214L118.509 42.2764Z" fill="#0A233F"/>
<path d="M15.784 33.1598C15.8468 33.1587 15.9079 33.139 15.9596 33.103C16.0114 33.067 16.0514 33.0164 16.0747 32.9576C16.098 32.8987 16.1036 32.8342 16.0907 32.7722C16.0778 32.7102 16.047 32.6534 16.0023 32.6089C15.9575 32.5645 15.9007 32.5344 15.839 32.5224C15.7773 32.5104 15.7135 32.5171 15.6555 32.5416C15.5976 32.5661 15.5481 32.6073 15.5133 32.6601C15.4785 32.7128 15.46 32.7748 15.46 32.8381C15.4597 32.8809 15.4679 32.9233 15.4841 32.9628C15.5004 33.0023 15.5243 33.0381 15.5545 33.0681C15.5847 33.0981 15.6206 33.1217 15.6601 33.1375C15.6995 33.1532 15.7416 33.1608 15.784 33.1598Z" fill="#0A233F"/>
<path d="M16.651 33.1602C16.7356 33.1602 16.8168 33.1263 16.8766 33.066C16.9364 33.0056 16.97 32.9238 16.97 32.8384C16.97 32.7531 16.9364 32.6712 16.8766 32.6108C16.8168 32.5505 16.7356 32.5166 16.651 32.5166C16.5664 32.5166 16.4853 32.5505 16.4255 32.6108C16.3657 32.6712 16.332 32.7531 16.332 32.8384C16.332 32.9238 16.3657 33.0056 16.4255 33.066C16.4853 33.1263 16.5664 33.1602 16.651 33.1602Z" fill="#0A233F"/>
<path d="M16.2753 35.8227H25.9006L26.0417 35.3547C25.7361 35.2163 25.5985 34.9089 25.4701 34.4232C25.2714 33.7365 25.067 33.4597 24.4198 33.4473C24.0982 33.4519 23.7876 33.5651 23.5374 33.7689L23.5637 33.8035C23.6307 33.8884 23.7217 33.9509 23.8246 33.9826C23.9275 34.0142 24.0375 34.0137 24.1401 33.9809C24.2204 33.9573 24.3036 33.9457 24.3872 33.9463C24.7829 33.9725 24.848 34.1109 25.0006 34.6427C25.0503 34.876 25.156 35.0933 25.3083 35.2757H17.1841V33.7928C16.8839 33.6352 16.5509 33.5517 16.2125 33.5488C16.0566 33.5328 15.8992 33.5506 15.7508 33.601C15.6023 33.6513 15.4663 33.7331 15.3517 33.8409C15.2371 33.9486 15.1467 34.0798 15.0865 34.2257C15.0263 34.3715 14.9976 34.5287 15.0025 34.6866C15.0025 35.3831 15.5086 35.8253 16.2753 35.8253M16.172 34.051C16.34 34.0468 16.5062 34.0853 16.6556 34.1628V35.2788H16.1988C15.7921 35.2788 15.5248 35.0792 15.5248 34.6724C15.5204 34.5869 15.5343 34.5015 15.5657 34.4219C15.5971 34.3424 15.6453 34.2706 15.7068 34.2116C15.7682 34.1526 15.8417 34.1078 15.922 34.0801C16.0023 34.0524 16.0876 34.0427 16.172 34.0514" fill="#0A233F"/>
<path d="M35.2047 35.6372C35.4242 35.7549 35.6684 35.8182 35.9169 35.8217H35.9759C36.2553 35.662 36.5709 35.5778 36.8921 35.5772C37.2133 35.5765 37.5292 35.6595 37.8093 35.8182C37.8299 35.8231 37.851 35.825 37.8722 35.8239H37.8761C38.3233 35.8291 38.7559 35.6629 39.0865 35.359V35.3613V32.5667C38.9466 32.5667 38.8124 32.6228 38.7134 32.7226C38.6145 32.8224 38.5589 32.9578 38.5589 33.099V35.1328C38.356 35.2264 38.1353 35.2742 37.9122 35.273H37.8735C37.6377 35.2787 37.4037 35.2301 37.1893 35.131V32.5653C37.12 32.5653 37.0515 32.5791 36.9874 32.6059C36.9234 32.6326 36.8653 32.6718 36.8163 32.7213C36.7673 32.7707 36.7284 32.8294 36.7019 32.8939C36.6754 32.9585 36.6617 33.0278 36.6617 33.0977V35.1319C36.4468 35.2313 36.2122 35.2799 35.9759 35.2739C35.7865 35.2788 35.5982 35.2442 35.4228 35.1723C35.4452 35.0791 35.4554 34.9834 35.4531 34.8875C35.4531 34.5865 35.3345 34.2977 35.1236 34.0849C34.9126 33.872 34.6264 33.7524 34.328 33.7524C34.0296 33.7524 33.7434 33.872 33.5324 34.0849C33.3214 34.2977 33.2029 34.5865 33.2029 34.8875C33.2009 34.9847 33.2111 35.0817 33.2332 35.1763C33.0585 35.2462 32.8715 35.2794 32.6836 35.2739C32.4483 35.2795 32.2148 35.231 32.0008 35.1319V33.9405H31.4732V35.1381C31.3422 35.2303 31.1858 35.2787 31.0261 35.2765C30.8671 35.2781 30.7112 35.2318 30.5785 35.1435V34.1436H30.0509V35.1435C29.9184 35.2316 29.7629 35.2779 29.6042 35.2765C29.4443 35.2788 29.2877 35.2304 29.1566 35.1381V34.1423H28.629V35.1275C28.4261 35.2217 28.2056 35.271 27.9822 35.2721H27.937C27.7001 35.2772 27.4651 35.2287 27.2493 35.1302V32.5645C27.18 32.5645 27.1114 32.5782 27.0474 32.605C26.9834 32.6317 26.9252 32.6709 26.8762 32.7204C26.8272 32.7698 26.7884 32.8285 26.7619 32.8931C26.7354 32.9576 26.7217 33.0269 26.7217 33.0968V35.2162C26.7117 35.2924 26.7272 35.3698 26.7657 35.4361C26.8041 35.5025 26.8634 35.554 26.9341 35.5826C27.2271 35.7364 27.5521 35.8178 27.8824 35.8199H27.9392C28.2669 35.8286 28.5906 35.7453 28.8743 35.5795C29.0871 35.7387 29.3458 35.8232 29.6108 35.8199C29.8683 35.8229 30.1195 35.7398 30.3252 35.5835C30.5272 35.739 30.7747 35.8222 31.0287 35.8199C31.2977 35.8222 31.5615 35.7451 31.7876 35.5981C32.0452 35.7366 32.3312 35.8125 32.6229 35.8199C32.6353 35.8216 32.6478 35.8225 32.6603 35.8226H32.6823C32.9482 35.8261 33.2106 35.7615 33.4451 35.635C33.5531 35.7637 33.6877 35.8671 33.8393 35.9381C33.991 36.0091 34.1562 36.0458 34.3233 36.0458C34.4905 36.0458 34.6557 36.0091 34.8074 35.9381C34.9591 35.8671 35.0936 35.7637 35.2016 35.635M33.7186 34.8858C33.7131 34.8027 33.7246 34.7195 33.7524 34.6411C33.7801 34.5628 33.8235 34.491 33.8798 34.4303C33.9362 34.3695 34.0043 34.3211 34.0799 34.288C34.1556 34.2549 34.2372 34.2378 34.3196 34.2378C34.4021 34.2378 34.4837 34.2549 34.5593 34.288C34.635 34.3211 34.7031 34.3695 34.7594 34.4303C34.8157 34.491 34.8591 34.5628 34.8869 34.6411C34.9146 34.7195 34.9261 34.8027 34.9206 34.8858C34.9261 34.9693 34.9144 35.053 34.8863 35.1318C34.8581 35.2105 34.8142 35.2825 34.7572 35.3433C34.7002 35.4041 34.6314 35.4524 34.555 35.4851C34.4787 35.5178 34.3964 35.5342 34.3135 35.5334C34.2312 35.5339 34.1496 35.5171 34.0741 35.4842C33.9985 35.4512 33.9306 35.4027 33.8747 35.3417C33.8187 35.2808 33.7759 35.2088 33.7491 35.1303C33.7222 35.0518 33.7118 34.9685 33.7186 34.8858Z" fill="#0A233F"/>
<path d="M41.6889 33.1598C41.7517 33.1588 41.8128 33.1391 41.8646 33.1032C41.9164 33.0673 41.9565 33.0167 41.9799 32.9579C42.0033 32.8991 42.0089 32.8345 41.996 32.7725C41.9832 32.7104 41.9525 32.6536 41.9077 32.6091C41.863 32.5646 41.8062 32.5345 41.7445 32.5224C41.6828 32.5104 41.6189 32.5171 41.5609 32.5415C41.503 32.566 41.4535 32.6072 41.4186 32.66C41.3838 32.7128 41.3653 32.7747 41.3652 32.8381C41.3649 32.8809 41.373 32.9233 41.3892 32.9628C41.4054 33.0023 41.4293 33.0381 41.4595 33.0681C41.4897 33.0981 41.5256 33.1217 41.565 33.1375C41.6044 33.1532 41.6465 33.1608 41.6889 33.1598Z" fill="#0A233F"/>
<path d="M42.5553 33.1602C42.6399 33.1602 42.721 33.1263 42.7808 33.066C42.8406 33.0056 42.8742 32.9238 42.8742 32.8384C42.8742 32.7531 42.8406 32.6712 42.7808 32.6108C42.721 32.5505 42.6399 32.5166 42.5553 32.5166C42.4707 32.5166 42.3895 32.5505 42.3297 32.6108C42.2699 32.6712 42.2363 32.7531 42.2363 32.8384C42.2363 32.9238 42.2699 33.0056 42.3297 33.066C42.3895 33.1263 42.4707 33.1602 42.5553 33.1602Z" fill="#0A233F"/>
<path d="M42.1785 35.8233H47.0897C47.3612 35.825 47.6292 35.7608 47.8709 35.6361C47.9769 35.7682 48.1115 35.874 48.2645 35.9453C48.4174 36.0166 48.5845 36.0515 48.7529 36.0473C48.9814 36.052 49.2062 35.988 49.3985 35.8634C49.5908 35.7388 49.742 35.5591 49.8327 35.3475C49.9235 35.1358 49.9497 34.9017 49.908 34.675C49.8663 34.4482 49.7586 34.2391 49.5987 34.0744C49.4388 33.9096 49.2338 33.7967 49.01 33.7499C48.7862 33.7031 48.5536 33.7247 48.342 33.8118C48.1304 33.8989 47.9492 34.0476 47.8217 34.239C47.6942 34.4304 47.6261 34.6558 47.626 34.8864C47.6241 34.9824 47.6343 35.0782 47.6564 35.1716C47.4743 35.2429 47.2801 35.2774 47.0848 35.2732H43.0869V33.7907C42.7867 33.6331 42.4537 33.5495 42.1152 33.5468C41.9594 33.5307 41.8019 33.5484 41.6534 33.5987C41.5049 33.6491 41.3688 33.7309 41.2542 33.8386C41.1396 33.9464 41.0491 34.0776 40.9889 34.2235C40.9286 34.3694 40.8999 34.5266 40.9048 34.6846C40.9048 35.381 41.4109 35.8233 42.1799 35.8233M48.7463 34.2388C48.8296 34.237 48.9123 34.2528 48.9891 34.2852C49.0659 34.3176 49.1352 34.3659 49.1924 34.4269C49.2496 34.488 49.2935 34.5605 49.3212 34.6397C49.349 34.7189 49.36 34.8031 49.3535 34.8868C49.3589 34.9703 49.3472 35.054 49.319 35.1327C49.2908 35.2114 49.2469 35.2834 49.1899 35.3441C49.1329 35.4049 49.0641 35.4531 48.9877 35.4858C48.9114 35.5185 48.8292 35.5349 48.7463 35.534C48.5843 35.5219 48.4328 35.4484 48.3222 35.3283C48.2116 35.2082 48.1502 35.0503 48.1502 34.8864C48.1502 34.7225 48.2116 34.5646 48.3222 34.4445C48.4328 34.3244 48.5843 34.2509 48.7463 34.2388ZM42.077 34.0476C42.2449 34.0435 42.4112 34.0819 42.5606 34.1593V35.2754H42.1038C41.6971 35.2754 41.4294 35.0758 41.4294 34.6691C41.4249 34.5835 41.4389 34.498 41.4703 34.4184C41.5017 34.3388 41.5499 34.2671 41.6114 34.2081C41.6729 34.149 41.7464 34.1042 41.8268 34.0766C41.9072 34.0489 41.9925 34.0388 42.077 34.0476Z" fill="#0A233F"/>
<path d="M50.7986 35.5831C51.091 35.7366 51.4152 35.8179 51.7448 35.8204C51.7575 35.821 51.7703 35.821 51.783 35.8204H56.9826C56.9972 35.822 57.0119 35.8228 57.0265 35.8226H57.0305C57.0446 35.8226 57.0578 35.8226 57.071 35.8204H57.0793C57.5092 35.815 57.9223 35.6509 58.2405 35.359V32.5645C58.1005 32.5645 57.9663 32.6205 57.8674 32.7203C57.7685 32.8202 57.7129 32.9556 57.7129 33.0968V35.131C57.5132 35.2228 57.2965 35.2705 57.0771 35.2708H56.098C56.2575 35.1669 56.3894 35.0252 56.4821 34.858C56.5749 34.6908 56.6256 34.5033 56.6299 34.3117C56.6299 33.7457 56.1903 33.4423 55.5132 33.4423C55.1033 33.4469 54.7004 33.5495 54.3375 33.7417L54.2496 34.1529L54.9636 35.2725H51.8033C51.5664 35.2777 51.3314 35.2292 51.1156 35.1306V32.5649C50.9757 32.5649 50.8415 32.621 50.7426 32.7208C50.6436 32.8206 50.588 32.956 50.588 33.0972V35.2167C50.578 35.2929 50.5934 35.3703 50.6319 35.4366C50.6703 35.503 50.7296 35.5545 50.8004 35.5831M54.8546 34.1126C55.054 34.0123 55.2737 33.96 55.4965 33.96C55.8728 33.96 56.1037 34.1374 56.1037 34.4386C56.0806 34.6159 56.0061 34.7825 55.8895 34.9172C55.773 35.052 55.6196 35.1491 55.4486 35.1962L54.8546 34.1126Z" fill="#0A233F"/>
<path d="M59.6623 35.2941V32.5674C59.5224 32.5674 59.3882 32.6235 59.2893 32.7233C59.1903 32.8231 59.1348 32.9585 59.1348 33.0997V35.8259C59.2747 35.8259 59.4089 35.7699 59.5078 35.67C59.6068 35.5702 59.6623 35.4353 59.6623 35.2941Z" fill="#0A233F"/>
<path d="M63.1325 33.1602C63.2171 33.1602 63.2982 33.1263 63.358 33.066C63.4178 33.0056 63.4515 32.9238 63.4515 32.8384C63.4515 32.7531 63.4178 32.6712 63.358 32.6108C63.2982 32.5505 63.2171 32.5166 63.1325 32.5166C63.0479 32.5166 62.9667 32.5505 62.9069 32.6108C62.8471 32.6712 62.8135 32.7531 62.8135 32.8384C62.8135 32.9238 62.8471 33.0056 62.9069 33.066C62.9667 33.1263 63.0479 33.1602 63.1325 33.1602Z" fill="#0A233F"/>
<path d="M62.7554 35.8231H65.4511C65.731 35.6632 66.047 35.579 66.3687 35.5784C66.6903 35.5779 67.0067 35.6611 67.2871 35.82C67.3017 35.8217 67.3164 35.8225 67.3311 35.8227H67.3452C67.6761 35.8278 68.0023 35.7434 68.29 35.5783C68.5633 35.7328 68.8706 35.8158 69.1839 35.8196C69.1956 35.8203 69.2073 35.8203 69.219 35.8196H76.474C76.9212 35.8247 77.3536 35.6587 77.6844 35.3551V32.5605C77.5445 32.5605 77.4103 32.6166 77.3113 32.7164C77.2124 32.8163 77.1568 32.9517 77.1568 33.0928V35.1271C76.9537 35.2202 76.7331 35.268 76.51 35.2673H75.8945V34.7133C75.9164 34.455 75.8818 34.1951 75.7929 33.952C75.7041 33.7088 75.5633 33.4883 75.3805 33.3062C75.0016 32.9939 74.5218 32.8335 74.033 32.856C73.8474 32.8567 73.6622 32.8704 73.4785 32.8968C73.4785 32.9564 73.4904 33.0153 73.5134 33.0702C73.5365 33.1251 73.5702 33.1746 73.6127 33.216C73.6552 33.2574 73.7055 33.2898 73.7606 33.3112C73.8157 33.3325 73.8746 33.3425 73.9336 33.3404H74.0189C74.3683 33.3265 74.7111 33.4385 74.9862 33.6562C75.1224 33.7878 75.2275 33.9489 75.2934 34.1272C75.3593 34.3056 75.3845 34.4967 75.3669 34.6862V35.2815H74.6445C74.725 35.197 74.7879 35.0971 74.8296 34.9877C74.8713 34.8783 74.8909 34.7616 74.8872 34.6445C74.8865 34.5223 74.8611 34.4016 74.8126 34.2896C74.764 34.1777 74.6934 34.0769 74.605 33.9935C74.5166 33.91 74.4122 33.8455 74.2983 33.8041C74.1844 33.7627 74.0633 33.7451 73.9424 33.7524C73.8219 33.7448 73.7012 33.7622 73.5877 33.8036C73.4742 33.8451 73.3704 33.9097 73.2827 33.9933C73.195 34.077 73.1253 34.178 73.078 34.2901C73.0307 34.4021 73.0067 34.5227 73.0076 34.6445C73.0036 34.7609 73.0227 34.8768 73.0638 34.9856C73.1048 35.0944 73.1671 35.1938 73.2468 35.2779H69.2428C69.007 35.2836 68.7732 35.2347 68.5591 35.1351V33.5959C68.4191 33.5959 68.285 33.6519 68.186 33.7518C68.0871 33.8516 68.0315 33.987 68.0315 34.1282V35.136C67.8155 35.2301 67.5828 35.2787 67.3476 35.2787C67.1123 35.2787 66.8796 35.2301 66.6637 35.136V33.5959C66.5237 33.5959 66.3895 33.6519 66.2906 33.7518C66.1916 33.8516 66.1361 33.987 66.1361 34.1282V35.136C65.9204 35.2362 65.6849 35.2851 65.4475 35.2788H63.6656V33.791C63.3653 33.6335 63.0323 33.5499 62.6939 33.5471C62.5381 33.5311 62.3807 33.5488 62.2322 33.5992C62.0838 33.6496 61.9477 33.7314 61.8331 33.8391C61.7186 33.9468 61.6281 34.078 61.5679 34.2239C61.5077 34.3698 61.4791 34.5269 61.4839 34.6849C61.4839 35.3818 61.99 35.8235 62.7568 35.8235M73.949 34.2266C74.0113 34.2249 74.0733 34.2364 74.1309 34.2604C74.1886 34.2843 74.2407 34.3202 74.2837 34.3656C74.3268 34.4111 74.36 34.4651 74.3811 34.5243C74.4022 34.5835 74.4107 34.6465 74.4062 34.7093C74.4138 34.7769 74.408 34.8453 74.389 34.9106C74.37 34.9758 74.3383 35.0366 74.2957 35.0893C74.2531 35.1421 74.2005 35.1857 74.1409 35.2176C74.0814 35.2496 74.0161 35.2692 73.949 35.2753C73.814 35.2612 73.6902 35.1937 73.6045 35.0876C73.5187 34.9815 73.4782 34.8455 73.4917 34.7093C73.4871 34.6465 73.4955 34.5834 73.5166 34.5242C73.5376 34.4649 73.5708 34.4108 73.6139 34.3653C73.657 34.3198 73.7091 34.2839 73.7668 34.2601C73.8246 34.2362 73.8866 34.2248 73.949 34.2266ZM62.6534 34.0492C62.8214 34.0453 62.9877 34.0839 63.1371 34.1614V35.2775H62.6798C62.2731 35.2775 62.0058 35.0779 62.0058 34.6711C62.0013 34.5856 62.0153 34.5001 62.0467 34.4205C62.0782 34.3409 62.1263 34.2691 62.1879 34.2101C62.2494 34.1511 62.3229 34.1063 62.4033 34.0786C62.4836 34.051 62.569 34.0413 62.6534 34.0501" fill="#0A233F"/>
<path d="M62.267 33.1598C62.3298 33.1588 62.391 33.1391 62.4427 33.1032C62.4945 33.0673 62.5346 33.0167 62.558 32.9579C62.5814 32.8991 62.587 32.8345 62.5742 32.7725C62.5613 32.7104 62.5306 32.6536 62.4858 32.6091C62.4411 32.5646 62.3843 32.5345 62.3226 32.5224C62.2609 32.5104 62.197 32.5171 62.1391 32.5415C62.0811 32.566 62.0316 32.6072 61.9968 32.66C61.962 32.7128 61.9434 32.7747 61.9434 32.8381C61.943 32.8809 61.9512 32.9233 61.9674 32.9628C61.9836 33.0023 62.0075 33.0381 62.0376 33.0681C62.0678 33.0981 62.1037 33.1217 62.1431 33.1375C62.1825 33.1532 62.2246 33.1608 62.267 33.1598Z" fill="#0A233F"/>
<path d="M66.8719 32.8262H66.6186C66.4278 32.8262 66.339 32.7446 66.339 32.6248C66.3383 32.6024 66.3421 32.58 66.3503 32.5591C66.3585 32.5382 66.3708 32.5193 66.3866 32.5034C66.4023 32.4875 66.4211 32.475 66.4418 32.4668C66.4625 32.4585 66.4847 32.4547 66.507 32.4554C66.5593 32.4542 66.6101 32.4733 66.649 32.5086L66.8389 32.3028C66.7404 32.2061 66.6084 32.152 66.4709 32.152C66.4165 32.1489 66.362 32.1572 66.3108 32.1763C66.2597 32.1953 66.2129 32.2247 66.1735 32.2627C66.134 32.3007 66.1027 32.3465 66.0815 32.3972C66.0603 32.4479 66.0496 32.5024 66.0501 32.5574C66.0488 32.6565 66.0848 32.7524 66.1508 32.8258H65.9385V33.174H66.8732L66.8719 32.8262Z" fill="#0A233F"/>
<path d="M68.42 36.473C68.4202 36.5365 68.439 36.5985 68.4741 36.6512C68.5093 36.7038 68.5591 36.7448 68.6173 36.7689C68.6756 36.7929 68.7396 36.799 68.8012 36.7864C68.8629 36.7737 68.9194 36.7429 68.9637 36.6978C69.008 36.6527 69.038 36.5953 69.05 36.533C69.0619 36.4706 69.0552 36.4061 69.0308 36.3476C69.0064 36.2891 68.9653 36.2392 68.9128 36.2043C68.8602 36.1694 68.7986 36.1509 68.7357 36.1514C68.6938 36.1509 68.6523 36.1589 68.6136 36.1749C68.5749 36.191 68.5397 36.2147 68.5103 36.2447C68.4808 36.2747 68.4577 36.3104 68.4422 36.3496C68.4266 36.3888 68.4191 36.4308 68.42 36.473Z" fill="#0A233F"/>
<path d="M67.5479 36.4731C67.5484 36.5153 67.5572 36.557 67.5738 36.5957C67.5903 36.6345 67.6144 36.6695 67.6445 36.6989C67.6746 36.7282 67.7101 36.7512 67.7491 36.7666C67.788 36.782 67.8296 36.7894 67.8715 36.7885C67.9552 36.7885 68.0355 36.7549 68.0947 36.6952C68.1539 36.6354 68.1872 36.5544 68.1872 36.47C68.1872 36.3855 68.1539 36.3045 68.0947 36.2448C68.0355 36.185 67.9552 36.1515 67.8715 36.1515C67.8291 36.1504 67.7869 36.1579 67.7475 36.1737C67.7081 36.1894 67.6722 36.213 67.642 36.243C67.6118 36.273 67.5879 36.3088 67.5717 36.3484C67.5556 36.3879 67.5474 36.4303 67.5479 36.4731Z" fill="#0A233F"/>
<path d="M79.1077 35.2941V32.5674C78.9678 32.5674 78.8335 32.6235 78.7346 32.7233C78.6357 32.8231 78.5801 32.9585 78.5801 33.0997V35.8259C78.6494 35.8259 78.718 35.8122 78.782 35.7854C78.846 35.7587 78.9041 35.7195 78.9531 35.67C79.0021 35.6206 79.041 35.5619 79.0675 35.4973C79.094 35.4328 79.1077 35.364 79.1077 35.2941Z" fill="#0A233F"/>
<path d="M16.338 38.1439C16.3371 38.1859 16.3446 38.2278 16.36 38.2669C16.3754 38.306 16.3984 38.3416 16.4276 38.3717C16.4569 38.4017 16.4918 38.4255 16.5303 38.4417C16.5688 38.4579 16.6102 38.4661 16.6519 38.4659C16.7365 38.4659 16.8176 38.432 16.8774 38.3717C16.9372 38.3113 16.9709 38.2295 16.9709 38.1441C16.9709 38.0587 16.9372 37.9769 16.8774 37.9165C16.8176 37.8562 16.7365 37.8223 16.6519 37.8223C16.6102 37.8222 16.569 37.8305 16.5306 37.8467C16.4921 37.8629 16.4573 37.8867 16.428 37.9166C16.3988 37.9466 16.3758 37.9821 16.3603 38.0211C16.3449 38.0601 16.3373 38.1018 16.338 38.1439Z" fill="#0A233F"/>
<path d="M15.4619 38.1439C15.4619 38.2073 15.4805 38.2693 15.5153 38.322C15.5501 38.3748 15.5996 38.416 15.6575 38.4405C15.7154 38.465 15.7793 38.4717 15.8409 38.4597C15.9026 38.4477 15.9594 38.4176 16.0042 38.3731C16.049 38.3287 16.0798 38.2719 16.0927 38.2099C16.1055 38.1478 16.1 38.0833 16.0767 38.0245C16.0533 37.9656 16.0133 37.9151 15.9616 37.8791C15.9099 37.8431 15.8488 37.8234 15.7859 37.8223C15.7436 37.8216 15.7016 37.8294 15.6623 37.8452C15.6231 37.8611 15.5873 37.8847 15.5571 37.9146C15.527 37.9445 15.503 37.9802 15.4867 38.0196C15.4703 38.059 15.4619 38.1012 15.4619 38.1439Z" fill="#0A233F"/>
<path d="M16.2757 41.1293H17.862C18.193 41.1344 18.5192 41.05 18.8069 40.8849C19.0803 41.0394 19.3878 41.1224 19.7012 41.1262C19.713 41.1275 19.7249 41.1283 19.7368 41.1284H22.162C22.3925 41.1294 22.622 41.0979 22.8439 41.0348C23.031 40.9863 23.2091 40.9079 23.3715 40.8024V38.895C23.2316 38.895 23.0974 38.951 22.9984 39.0509C22.8995 39.1507 22.8439 39.2861 22.8439 39.4273V40.4635C22.6243 40.5467 22.3908 40.5862 22.1563 40.5797H19.7565C19.5207 40.5854 19.2868 40.5367 19.0724 40.4373V38.8981C18.9325 38.8981 18.7983 38.9542 18.6993 39.054C18.6004 39.1538 18.5448 39.2892 18.5448 39.4304V40.4386C18.3425 40.5323 18.1224 40.5803 17.8998 40.5793H17.1832V39.0968C16.883 38.9389 16.55 38.8551 16.2115 38.8524C16.0556 38.8364 15.8982 38.8541 15.7497 38.9045C15.6012 38.9549 15.4651 39.0368 15.3506 39.1445C15.236 39.2523 15.1456 39.3836 15.0854 39.5295C15.0252 39.6754 14.9966 39.8326 15.0015 39.9906C15.0015 40.687 15.5076 41.1289 16.2744 41.1289M16.1711 39.3545C16.339 39.3505 16.5053 39.3891 16.6547 39.4668V40.5828H16.1979C15.7912 40.5828 15.5238 40.3832 15.5238 39.9764C15.5193 39.8909 15.5332 39.8054 15.5646 39.7258C15.596 39.6463 15.6441 39.5745 15.7056 39.5154C15.7671 39.4564 15.8406 39.4115 15.9209 39.3839C16.0013 39.3563 16.0866 39.3466 16.1711 39.3554" fill="#0A233F"/>
<path d="M19.2493 42.094C19.2911 42.0957 19.3328 42.0887 19.3719 42.0735C19.4109 42.0583 19.4465 42.0353 19.4764 42.0058C19.5063 41.9763 19.53 41.9409 19.5459 41.9018C19.5618 41.8628 19.5696 41.8209 19.5689 41.7787C19.5695 41.7362 19.5616 41.6941 19.5457 41.6548C19.5298 41.6154 19.5062 41.5797 19.4764 41.5497C19.4466 41.5198 19.4112 41.4961 19.3722 41.4802C19.3331 41.4643 19.2914 41.4564 19.2493 41.4571C19.1656 41.4571 19.0853 41.4906 19.0261 41.5504C18.9669 41.6101 18.9336 41.6911 18.9336 41.7756C18.9336 41.86 18.9669 41.941 19.0261 42.0008C19.0853 42.0605 19.1656 42.094 19.2493 42.094Z" fill="#0A233F"/>
<path d="M18.386 41.457C18.3023 41.457 18.222 41.4906 18.1628 41.5503C18.1036 41.6101 18.0703 41.6911 18.0703 41.7755C18.0703 41.86 18.1036 41.941 18.1628 42.0007C18.222 42.0605 18.3023 42.094 18.386 42.094C18.4697 42.094 18.55 42.0605 18.6092 42.0007C18.6684 41.941 18.7017 41.86 18.7017 41.7755C18.7017 41.6911 18.6684 41.6101 18.6092 41.5503C18.55 41.4906 18.4697 41.457 18.386 41.457Z" fill="#0A233F"/>
<path d="M23.0926 37.8489C23.0495 37.8472 23.0065 37.8544 22.9662 37.87C22.9259 37.8855 22.8891 37.9091 22.858 37.9393C22.8269 37.9695 22.8022 38.0057 22.7854 38.0458C22.7685 38.0858 22.7598 38.1289 22.7598 38.1724C22.7598 38.216 22.7685 38.2591 22.7854 38.2991C22.8022 38.3392 22.8269 38.3754 22.858 38.4056C22.8891 38.4358 22.9259 38.4594 22.9662 38.4749C23.0065 38.4905 23.0495 38.4977 23.0926 38.496C23.1346 38.4967 23.1764 38.4889 23.2154 38.473C23.2544 38.4571 23.2898 38.4335 23.3196 38.4035C23.3494 38.3736 23.373 38.3379 23.3889 38.2987C23.4048 38.2594 23.4127 38.2173 23.4122 38.1749C23.4128 38.1322 23.405 38.0899 23.3892 38.0503C23.3734 38.0107 23.3499 37.9746 23.3201 37.9443C23.2904 37.9139 23.2549 37.8899 23.2159 37.8735C23.1768 37.8571 23.1349 37.8487 23.0926 37.8489Z" fill="#0A233F"/>
<path d="M24.4344 40.8893C24.7259 41.0427 25.0495 41.124 25.3783 41.1266C25.394 41.1283 25.4097 41.1292 25.4254 41.1292H27.472C27.8626 41.1318 28.251 41.07 28.6218 40.9461C28.838 41.0572 29.076 41.1187 29.3186 41.1262C29.327 41.1262 29.3406 41.1262 29.3556 41.1284H30.4868C30.7584 41.1303 31.0264 41.0661 31.2681 40.9412C31.3741 41.0734 31.5088 41.1792 31.6618 41.2505C31.8149 41.3218 31.9821 41.3567 32.1505 41.3524C32.3791 41.3572 32.6038 41.2931 32.7961 41.1685C32.9885 41.0439 33.1396 40.8643 33.2304 40.6526C33.3211 40.4409 33.3473 40.2068 33.3056 39.9801C33.2639 39.7533 33.1563 39.5443 32.9963 39.3795C32.8364 39.2148 32.6315 39.1018 32.4077 39.055C32.1838 39.0083 31.9513 39.0298 31.7396 39.1169C31.528 39.204 31.3469 39.3528 31.2194 39.5442C31.0918 39.7355 31.0237 39.9609 31.0237 40.1915C31.0217 40.2874 31.0319 40.3831 31.054 40.4763C30.872 40.5479 30.6778 40.5826 30.4824 40.5783H29.3354C29.1696 40.5783 29.0061 40.5393 28.8579 40.4643V40.2461C28.8394 39.5723 28.5422 39.3731 27.753 39.1451L27.4782 39.0692L28.3703 38.3852C28.4157 38.3507 28.4538 38.3072 28.4823 38.2575C28.5108 38.2078 28.529 38.1528 28.536 38.0958C28.543 38.0388 28.5385 37.981 28.5229 37.9258C28.5073 37.8706 28.4808 37.8191 28.445 37.7744L26.8486 39.0164L26.9031 39.2063C26.9236 39.2776 26.962 39.3424 27.0145 39.3945C27.067 39.4465 27.1319 39.484 27.203 39.5035L27.5107 39.5865C28.1865 39.7821 28.314 39.8761 28.332 40.2651V40.4342C28.0761 40.5346 27.8033 40.5842 27.5288 40.5805H25.4359C25.1987 40.5857 24.9634 40.5371 24.7474 40.4382V37.8702C24.6781 37.8702 24.6095 37.884 24.5455 37.9108C24.4815 37.9375 24.4233 37.9767 24.3743 38.0262C24.3253 38.0756 24.2865 38.1342 24.26 38.1988C24.2334 38.2634 24.2198 38.3326 24.2198 38.4025V40.5224C24.2097 40.5986 24.2251 40.6759 24.2635 40.7423C24.3018 40.8087 24.3611 40.8602 24.4317 40.8888M32.1396 39.5452C32.2228 39.5433 32.3055 39.559 32.3823 39.5913C32.4591 39.6236 32.5284 39.6718 32.5856 39.7328C32.6428 39.7938 32.6867 39.8662 32.7145 39.9454C32.7422 40.0245 32.7532 40.1087 32.7467 40.1924C32.7522 40.2759 32.7405 40.3597 32.7124 40.4384C32.6842 40.5171 32.6403 40.5892 32.5833 40.65C32.5263 40.7108 32.4575 40.759 32.3811 40.7917C32.3048 40.8244 32.2225 40.8409 32.1396 40.84C31.9781 40.8272 31.8273 40.7535 31.7173 40.6335C31.6074 40.5135 31.5463 40.3561 31.5463 40.1926C31.5463 40.0292 31.6074 39.8718 31.7173 39.7518C31.8273 39.6318 31.9781 39.558 32.1396 39.5452Z" fill="#0A233F"/>
<path d="M39.479 41.7787C39.4795 41.7362 39.4716 41.6941 39.4557 41.6548C39.4399 41.6154 39.4163 41.5797 39.3865 41.5497C39.3567 41.5198 39.3213 41.4961 39.2823 41.4802C39.2432 41.4643 39.2015 41.4564 39.1594 41.4571C39.0972 41.4579 39.0367 41.4771 38.9854 41.5125C38.9341 41.5478 38.8942 41.5976 38.8708 41.6557C38.8475 41.7138 38.8416 41.7775 38.854 41.839C38.8664 41.9004 38.8964 41.9568 38.9404 42.001C38.9844 42.0453 39.0404 42.0755 39.1013 42.0878C39.1622 42.1001 39.2254 42.094 39.2829 42.0703C39.3404 42.0466 39.3897 42.0062 39.4246 41.9543C39.4595 41.9025 39.4784 41.8413 39.479 41.7787Z" fill="#0A233F"/>
<path d="M38.6108 41.7787C38.6123 41.7143 38.5946 41.651 38.5602 41.5968C38.5257 41.5426 38.476 41.5001 38.4174 41.4746C38.3588 41.4491 38.294 41.4419 38.2313 41.4539C38.1686 41.4658 38.1109 41.4964 38.0656 41.5417C38.0202 41.587 37.9893 41.6449 37.9769 41.7081C37.9644 41.7712 37.9709 41.8367 37.9956 41.896C38.0203 41.9554 38.062 42.006 38.1153 42.0413C38.1687 42.0766 38.2313 42.0949 38.2951 42.0941C38.3363 42.0943 38.3773 42.0863 38.4155 42.0706C38.4537 42.0549 38.4884 42.0317 38.5177 42.0024C38.5471 41.9731 38.5704 41.9383 38.5863 41.8999C38.6023 41.8615 38.6106 41.8203 38.6108 41.7787Z" fill="#0A233F"/>
<path d="M38.9826 38.8999C38.8427 38.8999 38.7084 38.956 38.6095 39.0559C38.5105 39.1557 38.455 39.2911 38.455 39.4323V40.4401C38.2395 40.5403 38.0041 40.5892 37.7669 40.5829H35.9858V39.1861C35.6844 39.0282 35.3502 38.9446 35.0106 38.9421C34.8575 38.9256 34.7026 38.9418 34.556 38.9896C34.4094 39.0374 34.2745 39.1158 34.1599 39.2196C34.0452 39.3234 33.9535 39.4503 33.8906 39.5922C33.8278 39.7341 33.7952 39.8877 33.7949 40.0431C33.7949 40.6867 34.268 41.1325 35.0699 41.1325H35.4564C35.4261 41.5761 35.1997 41.7842 34.6896 41.7842C34.6014 41.7833 34.5134 41.7772 34.4258 41.766C34.3018 41.7501 34.1764 41.7826 34.0753 41.8567C33.9741 41.9309 33.9048 42.0412 33.8815 42.1652C34.1356 42.2522 34.402 42.2962 34.6703 42.2956C35.4292 42.2956 35.9269 41.9328 35.9796 41.1347H37.7682C38.0991 41.1399 38.4254 41.0555 38.713 40.8903C38.9871 41.0454 39.2954 41.1283 39.6095 41.1316H42.5905C43.0376 41.1367 43.47 40.971 43.8009 40.6676V37.873C43.7316 37.873 43.663 37.8868 43.599 37.9136C43.535 37.9403 43.4768 37.9795 43.4278 38.029C43.3788 38.0784 43.34 38.1371 43.3135 38.2016C43.287 38.2662 43.2733 38.3355 43.2733 38.4054V40.4396C43.0705 40.5332 42.85 40.5812 42.627 40.5803H42.3751C42.2801 40.5934 42.1834 40.5749 42.0998 40.5275C41.9101 40.301 41.7816 40.0288 41.727 39.7374C41.5287 39.033 41.3242 38.766 40.681 38.7518C40.3592 38.7551 40.048 38.8687 39.7986 39.0738L39.8166 39.0982C39.8869 39.1857 39.9814 39.25 40.088 39.2831C40.1946 39.3162 40.3086 39.3166 40.4154 39.2841C40.4898 39.2627 40.5668 39.2523 40.6441 39.2531C41.0508 39.2752 41.0952 39.4136 41.2552 39.9455C41.3025 40.1812 41.4092 40.4006 41.5652 40.5825H39.6632C39.4273 40.5882 39.1933 40.5393 38.9791 40.4396L38.9826 38.8999ZM35.4573 40.582H34.986C34.5903 40.582 34.3164 40.3806 34.3164 40.0098C34.3164 39.639 34.5912 39.4332 34.9759 39.4332C35.1421 39.4334 35.3062 39.4717 35.4555 39.5454L35.4573 40.582Z" fill="#0A233F"/>
<path d="M40.5878 41.7773C40.5876 41.8202 40.5959 41.8628 40.6121 41.9025C40.6283 41.9422 40.6522 41.9782 40.6823 42.0086C40.7125 42.0389 40.7483 42.0629 40.7877 42.0791C40.8271 42.0954 40.8692 42.1036 40.9118 42.1033C40.9541 42.1035 40.9961 42.0952 41.0352 42.0788C41.0743 42.0625 41.1097 42.0384 41.1395 42.008C41.1692 41.9777 41.1927 41.9416 41.2085 41.902C41.2243 41.8624 41.2321 41.82 41.2314 41.7773C41.2284 41.6933 41.1931 41.6138 41.1331 41.5555C41.0732 41.4972 40.9931 41.4646 40.9098 41.4646C40.8265 41.4646 40.7465 41.4972 40.6865 41.5555C40.6265 41.6138 40.5908 41.6933 40.5878 41.7773Z" fill="#0A233F"/>
<path d="M45.2259 40.6007V37.874C45.0859 37.874 44.9517 37.9301 44.8528 38.0299C44.7538 38.1297 44.6982 38.2652 44.6982 38.4063V41.133C44.8382 41.133 44.9724 41.077 45.0713 40.9771C45.1703 40.8773 45.2259 40.7419 45.2259 40.6007Z" fill="#0A233F"/>
<path d="M48.6191 38.7269C48.619 38.7905 48.6375 38.8528 48.6723 38.9058C48.7071 38.9589 48.7567 39.0004 48.8149 39.025C48.873 39.0497 48.9371 39.0565 48.999 39.0445C49.0609 39.0325 49.118 39.0023 49.1629 38.9577C49.2079 38.913 49.2388 38.856 49.2517 38.7937C49.2646 38.7314 49.2589 38.6667 49.2354 38.6077C49.2119 38.5486 49.1716 38.4979 49.1196 38.4619C49.0676 38.4259 49.0062 38.4062 48.9432 38.4053C48.9009 38.4046 48.8588 38.4123 48.8195 38.4281C48.7802 38.4439 48.7444 38.4675 48.7142 38.4975C48.684 38.5274 48.6601 38.5631 48.6438 38.6025C48.6274 38.6419 48.6191 38.6842 48.6191 38.7269Z" fill="#0A233F"/>
<path d="M49.4914 38.7267C49.4907 38.7689 49.4984 38.8109 49.514 38.85C49.5296 38.8892 49.5527 38.9248 49.5821 38.9548C49.6115 38.9848 49.6466 39.0086 49.6852 39.0247C49.7239 39.0408 49.7653 39.049 49.8071 39.0488C49.8917 39.0488 49.9729 39.0149 50.0327 38.9545C50.0925 38.8942 50.1261 38.8123 50.1261 38.727C50.1261 38.6416 50.0925 38.5598 50.0327 38.4994C49.9729 38.439 49.8917 38.4052 49.8071 38.4052C49.7653 38.4049 49.7239 38.4131 49.6853 38.4292C49.6467 38.4453 49.6117 38.469 49.5823 38.499C49.5529 38.5289 49.5297 38.5645 49.5141 38.6036C49.4985 38.6427 49.4908 38.6846 49.4914 38.7267Z" fill="#0A233F"/>
<path d="M50.1675 41.1291C50.6608 41.1505 51.1524 41.0572 51.6043 40.8563V38.8975C51.4644 38.8975 51.3302 38.9536 51.2312 39.0534C51.1323 39.1532 51.0767 39.2886 51.0767 39.4298V40.45C50.8096 40.5492 50.5256 40.5936 50.2413 40.5804H48.4505C47.9183 40.5804 47.6518 40.3532 47.6512 39.8986C47.6544 39.7181 47.683 39.5388 47.7361 39.3663V39.3641C47.6672 39.3517 47.5966 39.3538 47.5286 39.3702C47.4606 39.3866 47.3967 39.417 47.3409 39.4595C47.285 39.5019 47.2385 39.5556 47.2041 39.617C47.1698 39.6785 47.1484 39.7464 47.1412 39.8166C47.1331 39.895 47.129 39.9737 47.1289 40.0526C47.1289 40.8324 47.6007 41.1278 48.4158 41.1278L50.1675 41.1291Z" fill="#0A233F"/>
<path d="M58.1013 40.5821H53.6663C53.4292 40.5873 53.1939 40.5387 52.9778 40.4398V37.874C52.9085 37.874 52.8399 37.8878 52.7759 37.9146C52.7119 37.9413 52.6537 37.9805 52.6047 38.0299C52.5557 38.0794 52.5169 38.138 52.4904 38.2026C52.4639 38.2672 52.4502 38.3364 52.4502 38.4063V40.5262C52.4403 40.6023 52.4557 40.6796 52.494 40.7459C52.5324 40.8121 52.5916 40.8636 52.6621 40.8922C52.9546 41.0459 53.279 41.1272 53.6088 41.1295C53.6213 41.131 53.6339 41.1318 53.6466 41.1317H58.1039C58.3755 41.1337 58.6435 41.0695 58.8852 40.9446C58.9912 41.0768 59.1259 41.1826 59.2789 41.2539C59.4319 41.3252 59.5991 41.36 59.7676 41.3557C59.9961 41.3604 60.2208 41.2963 60.4131 41.1716C60.6054 41.0469 60.7565 40.8673 60.8471 40.6556C60.9378 40.444 60.9639 40.2099 60.9222 39.9832C60.8805 39.7565 60.7728 39.5474 60.6128 39.3827C60.4529 39.218 60.2479 39.1051 60.0241 39.0583C59.8003 39.0116 59.5678 39.0332 59.3562 39.1203C59.1446 39.2074 58.9635 39.3562 58.836 39.5476C58.7085 39.7389 58.6404 39.9643 58.6403 40.1949C58.6384 40.2907 58.6486 40.3864 58.6707 40.4797C58.4886 40.5512 58.2944 40.5859 58.0991 40.5817M59.7584 39.5455C59.8416 39.5435 59.9243 39.5592 60.0011 39.5915C60.078 39.6238 60.1472 39.6721 60.2044 39.7331C60.2616 39.794 60.3055 39.8665 60.3333 39.9456C60.3611 40.0248 60.3721 40.109 60.3656 40.1927C60.371 40.2762 60.3593 40.3599 60.3312 40.4387C60.3031 40.5174 60.2591 40.5894 60.2021 40.6502C60.1451 40.711 60.0763 40.7593 59.9999 40.792C59.9236 40.8247 59.8414 40.8411 59.7584 40.8403C59.5969 40.8275 59.4461 40.7537 59.3362 40.6337C59.2262 40.5137 59.1652 40.3563 59.1652 40.1929C59.1652 40.0295 59.2262 39.872 59.3362 39.752C59.4461 39.632 59.5969 39.5583 59.7584 39.5455Z" fill="#0A233F"/>
<path d="M62.6912 41.1296H63.0777C63.0474 41.5732 62.8205 41.7813 62.3105 41.7813C62.2223 41.7801 62.1342 41.7739 62.0467 41.7626C61.9226 41.7467 61.7972 41.7791 61.696 41.8533C61.5948 41.9275 61.5256 42.0379 61.5024 42.1619C61.7566 42.2484 62.0232 42.2922 62.2916 42.2914C63.0504 42.2914 63.5481 41.9295 63.6005 41.131H64.2824C64.563 40.9713 64.8796 40.8871 65.2018 40.8866C65.5239 40.8861 65.8408 40.9691 66.122 41.1279V41.131H70.2944C70.5601 41.1343 70.8223 41.0699 71.0568 40.9438C71.1647 41.0727 71.2992 41.1762 71.4509 41.2473C71.6026 41.3183 71.7678 41.3551 71.935 41.3551C72.1023 41.3551 72.2675 41.3183 72.4192 41.2473C72.5709 41.1762 72.7054 41.0727 72.8133 40.9438C73.0336 41.0617 73.2785 41.1249 73.5278 41.1283H73.5858C74.033 41.1336 74.4655 40.9677 74.7962 40.6639V40.6666V37.8719C74.7269 37.8719 74.6583 37.8857 74.5943 37.9125C74.5303 37.9392 74.4721 37.9784 74.4231 38.0279C74.3741 38.0773 74.3353 38.136 74.3088 38.2005C74.2822 38.2651 74.2686 38.3344 74.2686 38.4043V40.4385C74.0532 40.5374 73.8184 40.5861 73.5818 40.5809C73.3923 40.5858 73.2038 40.5511 73.0283 40.4789C73.051 40.3858 73.0613 40.29 73.0591 40.1941C73.0633 40.0424 73.0373 39.8913 72.9826 39.7499C72.928 39.6085 72.8458 39.4795 72.7409 39.3707C72.636 39.2619 72.5105 39.1754 72.3719 39.1163C72.2333 39.0572 72.0844 39.0268 71.934 39.0268C71.7835 39.0268 71.6346 39.0572 71.496 39.1163C71.3574 39.1754 71.2319 39.2619 71.127 39.3707C71.0221 39.4795 70.9399 39.6085 70.8853 39.7499C70.8306 39.8913 70.8046 40.0424 70.8088 40.1941C70.8069 40.2915 70.8172 40.3887 70.8396 40.4834C70.6646 40.5531 70.4773 40.5863 70.2892 40.5809H68.2544C68.4139 40.4769 68.5457 40.3352 68.6385 40.1681C68.7313 40.0009 68.7822 39.8134 68.7868 39.6219C68.7868 39.0559 68.3471 38.7525 67.6696 38.7525C67.2598 38.7569 66.8569 38.8594 66.4939 39.0514L66.406 39.4626L67.1205 40.5827H66.1796C65.9436 40.5885 65.7095 40.5398 65.495 40.4403V37.8746C65.3551 37.8746 65.2209 37.9307 65.1219 38.0305C65.023 38.1303 64.9674 38.2657 64.9674 38.4069V40.4412C64.7653 40.5349 64.5453 40.5829 64.3228 40.5818H63.6053V39.185C63.304 39.0268 62.9698 38.943 62.6301 38.9405C62.4769 38.924 62.3218 38.9402 62.1752 38.988C62.0285 39.0358 61.8934 39.1142 61.7787 39.2181C61.6641 39.322 61.5723 39.4491 61.5095 39.5911C61.4466 39.7332 61.4141 39.8869 61.414 40.0424C61.414 40.6856 61.8875 41.1314 62.689 41.1314M71.9243 39.5474C72.0075 39.5455 72.0903 39.5612 72.1671 39.5935C72.244 39.6258 72.3132 39.6741 72.3705 39.7351C72.4277 39.7961 72.4716 39.8686 72.4993 39.9478C72.5271 40.027 72.538 40.1113 72.5315 40.195C72.5368 40.2785 72.5251 40.3622 72.4969 40.4409C72.4688 40.5196 72.4248 40.5915 72.3678 40.6523C72.3108 40.713 72.242 40.7613 72.1657 40.7939C72.0894 40.8266 72.0072 40.8431 71.9243 40.8422C71.7628 40.8294 71.612 40.7556 71.5021 40.6356C71.3921 40.5156 71.331 40.3582 71.331 40.1948C71.331 40.0314 71.3921 39.8739 71.5021 39.7539C71.612 39.6339 71.7628 39.5602 71.9243 39.5474ZM67.0101 39.4205C67.2097 39.3204 67.4296 39.2683 67.6525 39.2684C68.0288 39.2684 68.2596 39.4436 68.2596 39.747C68.2365 39.9243 68.1619 40.0908 68.0453 40.2255C67.9287 40.3603 67.7752 40.4572 67.6041 40.5042L67.0101 39.4205ZM62.5958 39.4352C62.7621 39.4355 62.9261 39.4739 63.0755 39.5474V40.5836H62.6042C62.2085 40.5836 61.9346 40.3818 61.9346 40.0118C61.9346 39.6419 62.2098 39.4352 62.5941 39.4352" fill="#0A233F"/>
<path d="M75.6924 41.1316C75.8323 41.1316 75.9665 41.0756 76.0655 40.9757C76.1644 40.8759 76.22 40.7405 76.22 40.5994V37.873C76.0801 37.873 75.9459 37.9291 75.8469 38.029C75.748 38.1288 75.6924 38.2642 75.6924 38.4054V41.1316Z" fill="#0A233F"/>
<path d="M76.929 40.0398C76.929 40.683 77.4025 41.1293 78.204 41.1293H78.5905C78.5601 41.5728 78.3333 41.7809 77.8232 41.7809C77.5799 41.7803 77.3383 41.7383 77.1088 41.6567L77.016 42.1615C77.27 42.2484 77.5365 42.2925 77.8048 42.2919C77.9821 42.3153 78.1624 42.2974 78.3317 42.2396C78.5011 42.1818 78.6552 42.0856 78.782 41.9584C78.9088 41.8312 79.005 41.6764 79.0632 41.5058C79.1215 41.3352 79.1403 41.1535 79.1181 40.9744V39.1828C78.8168 39.0245 78.4826 38.9405 78.1429 38.9379C77.9896 38.9214 77.8346 38.9375 77.6879 38.9854C77.5413 39.0332 77.4062 39.1116 77.2915 39.2155C77.1768 39.3194 77.0851 39.4465 77.0222 39.5885C76.9594 39.7305 76.9269 39.8843 76.9268 40.0398M78.1104 39.433C78.2766 39.4332 78.4406 39.4714 78.59 39.5448V40.5814H78.1182C77.7225 40.5814 77.4487 40.3796 77.4487 40.0096C77.4487 39.6397 77.7239 39.433 78.1082 39.433" fill="#0A233F"/>
<path d="M16.7624 45.5647C16.9391 45.5638 17.114 45.602 17.2746 45.6764C17.3623 45.7198 17.4612 45.7343 17.5575 45.7178C17.6537 45.7013 17.7424 45.6547 17.811 45.5846H17.8149L17.9244 45.4706C17.6043 45.1858 17.1914 45.03 16.7646 45.0328C16.5516 45.0207 16.3383 45.0522 16.1378 45.1256C15.9372 45.199 15.7535 45.3126 15.5977 45.4596C15.4419 45.6067 15.3172 45.7841 15.2313 45.9811C15.1454 46.1781 15.0999 46.3906 15.0977 46.6059C15.0955 46.8211 15.1366 47.0345 15.2185 47.2333C15.3004 47.4321 15.4214 47.612 15.5741 47.7622C15.7269 47.9125 15.9082 48.0299 16.1073 48.1075C16.3063 48.185 16.5188 48.221 16.732 48.2133C17.2112 48.2167 17.6762 48.0496 18.0453 47.7413V46.4549H17.2236C17.1014 46.4548 16.9843 46.5036 16.8978 46.5906C16.8113 46.6776 16.7626 46.7957 16.7624 46.9189H17.505V47.4441C17.2792 47.6041 17.0077 47.685 16.732 47.6744C16.5954 47.6749 16.46 47.648 16.3337 47.5953C16.2074 47.5426 16.0927 47.4652 15.9963 47.3674C15.9 47.2696 15.8238 47.1535 15.7723 47.0258C15.7208 46.8981 15.6949 46.7614 15.6962 46.6235C15.6953 46.4827 15.7223 46.3431 15.7758 46.213C15.8292 46.0829 15.908 45.965 16.0073 45.8661C16.1067 45.7673 16.2248 45.6895 16.3544 45.6374C16.4841 45.5853 16.6228 45.56 16.7624 45.5629" fill="#0A233F"/>
<path d="M19.8078 45.9183C19.6568 45.9145 19.5066 45.9413 19.3661 45.9972C19.2256 46.0531 19.0977 46.137 18.9899 46.2437C18.8821 46.3505 18.7967 46.478 18.7387 46.6187C18.6807 46.7594 18.6514 46.9104 18.6524 47.0628C18.6519 47.2165 18.6819 47.3687 18.7407 47.5105C18.7995 47.6523 18.8859 47.7808 18.9948 47.8883C19.1037 47.9958 19.2328 48.0802 19.3746 48.1365C19.5163 48.1928 19.6678 48.2199 19.8201 48.2161C20.1801 48.2178 20.5273 48.0814 20.7914 47.8346C20.7198 47.7648 20.6302 47.7169 20.5328 47.6963C20.4354 47.6758 20.3342 47.6834 20.2409 47.7184C20.1124 47.7678 19.9757 47.792 19.8382 47.7898C19.6797 47.7996 19.5236 47.7472 19.4025 47.6436C19.2815 47.5401 19.2047 47.3933 19.1883 47.234H20.9628V47.0668C20.9658 46.9137 20.9378 46.7616 20.8806 46.6198C20.8233 46.478 20.738 46.3494 20.6299 46.242C20.5218 46.1346 20.393 46.0505 20.2516 45.9949C20.1102 45.9393 19.9591 45.9134 19.8074 45.9188M20.4449 46.9H19.191C19.1998 46.7418 19.2703 46.5936 19.387 46.4876C19.5036 46.3815 19.6571 46.3263 19.814 46.3339C19.9794 46.3282 20.1408 46.3864 20.2651 46.4967C20.3227 46.5455 20.3688 46.6067 20.4 46.6758C20.4311 46.7449 20.4467 46.8201 20.4453 46.896L20.4449 46.9Z" fill="#0A233F"/>
<path d="M22.9337 45.9209C22.6056 45.9258 22.288 46.0388 22.0293 46.2425V45.9635H22.0254C21.8852 45.9635 21.7507 46.0195 21.6514 46.1192C21.552 46.219 21.4958 46.3544 21.4951 46.4958V47.6362C21.4958 47.7777 21.552 47.913 21.6514 48.0128C21.7507 48.1126 21.8852 48.1686 22.0254 48.1686H22.0293V46.6311C22.2249 46.451 22.4807 46.3519 22.7455 46.3538C22.8709 46.3633 22.9879 46.4206 23.0728 46.514C23.1578 46.6075 23.2043 46.7301 23.2028 46.8569V47.6349C23.2035 47.7763 23.2596 47.9116 23.3589 48.0113C23.4581 48.111 23.5925 48.1671 23.7326 48.1672V46.7034C23.7405 46.5964 23.7251 46.4889 23.6875 46.3885C23.6498 46.2882 23.5908 46.1974 23.5146 46.1225C23.4384 46.0476 23.3469 45.9905 23.2464 45.9551C23.146 45.9197 23.0391 45.907 22.9333 45.9178" fill="#0A233F"/>
<path d="M25.4169 48.2155C25.777 48.2175 26.1244 48.0813 26.3886 47.8345C26.3172 47.7644 26.2275 47.7164 26.1301 47.6959C26.0326 47.6754 25.9313 47.6833 25.8382 47.7187C25.7097 47.7677 25.5732 47.7918 25.4359 47.7897C25.2773 47.7994 25.1212 47.747 25.0001 47.6433C24.879 47.5397 24.8023 47.3928 24.786 47.2334H26.561V47.0666C26.5532 46.763 26.4283 46.4744 26.2129 46.2622C25.9975 46.0501 25.7085 45.9311 25.4074 45.9305C25.1064 45.93 24.817 46.048 24.6009 46.2594C24.3847 46.4709 24.2589 46.759 24.2501 47.0626C24.2495 47.2163 24.2795 47.3686 24.3382 47.5104C24.397 47.6522 24.4834 47.7806 24.5922 47.8881C24.701 47.9957 24.8301 48.0801 24.9719 48.1364C25.1136 48.1927 25.2651 48.2197 25.4174 48.2159M25.4134 46.3351C25.579 46.3293 25.7404 46.3877 25.8645 46.4984C25.9221 46.5472 25.9682 46.6084 25.9993 46.6774C26.0304 46.7465 26.0458 46.8218 26.0444 46.8976H24.79C24.7998 46.74 24.8708 46.5927 24.9874 46.4875C25.1041 46.3822 25.2571 46.3275 25.4134 46.3351Z" fill="#0A233F"/>
<path d="M28.1594 46.444C28.2633 46.4131 28.3547 46.3497 28.4206 46.2629C28.4864 46.1762 28.5232 46.0706 28.5257 45.9613V45.917C28.3522 45.9239 28.1822 45.9687 28.0274 46.0482C27.8727 46.1276 27.7368 46.24 27.6292 46.3774V45.9618H27.5905C27.5252 45.9616 27.4605 45.9744 27.4001 45.9995C27.3397 46.0246 27.2849 46.0615 27.2386 46.108C27.1924 46.1545 27.1557 46.2098 27.1307 46.2706C27.1057 46.3315 27.0928 46.3967 27.0928 46.4626V48.1708H27.131C27.1964 48.171 27.2611 48.1582 27.3215 48.1331C27.3819 48.108 27.4368 48.0712 27.483 48.0246C27.5293 47.9781 27.566 47.9229 27.5911 47.862C27.6162 47.8012 27.6291 47.7359 27.6292 47.67V46.7962C27.772 46.6348 27.9537 46.5134 28.1568 46.444H28.1594Z" fill="#0A233F"/>
<path d="M30.869 46.7477C30.869 46.2225 30.5309 45.9209 29.9342 45.9209C29.5762 45.9199 29.225 46.0194 28.9199 46.2083C28.9629 46.3003 29.0385 46.3727 29.1318 46.4111C29.2251 46.4496 29.3293 46.4513 29.4238 46.4159C29.548 46.372 29.6786 46.3493 29.8103 46.349C30.1567 46.349 30.3379 46.5038 30.3379 46.7992V46.8254H29.5904C29.0628 46.8254 28.7344 47.0937 28.7344 47.5138C28.7344 47.9339 29.0501 48.216 29.5557 48.216C29.8417 48.2175 30.1189 48.1157 30.337 47.929V48.1712C30.4779 48.1713 30.6131 48.115 30.713 48.0146C30.8128 47.9142 30.8691 47.778 30.8694 47.6358L30.869 46.7477ZM30.3365 47.6349C30.1512 47.7569 29.9344 47.8214 29.7131 47.8203C29.4299 47.8203 29.262 47.6966 29.262 47.4805C29.262 47.2645 29.4343 47.1403 29.7276 47.1403H30.3365V47.6349Z" fill="#0A233F"/>
<path d="M31.4822 48.1707C31.6242 48.1706 31.7603 48.1137 31.8609 48.0125C31.9614 47.9113 32.0181 47.7741 32.0186 47.6308V45.078C31.8766 45.078 31.7405 45.1348 31.6399 45.2359C31.5394 45.337 31.4826 45.4742 31.4822 45.6174V48.1707Z" fill="#0A233F"/>
<path d="M36.2855 48.171C36.3563 48.1716 36.4261 48.1544 36.4886 48.1209C36.5511 48.0875 36.6044 48.0389 36.6437 47.9795C36.683 47.9201 36.7069 47.8517 36.7135 47.7806C36.7201 47.7095 36.709 47.6379 36.6812 47.5722L35.779 45.4261C35.7354 45.3229 35.6626 45.2349 35.5698 45.173C35.477 45.1111 35.3682 45.0781 35.2569 45.0781C35.1457 45.0781 35.0369 45.1111 34.9441 45.173C34.8512 45.2349 34.7785 45.3229 34.7348 45.4261L33.8361 47.5722C33.8088 47.6379 33.798 47.7095 33.8047 47.7804C33.8114 47.8514 33.8354 47.9195 33.8746 47.9788C33.9138 48.0382 33.9669 48.0868 34.0293 48.1203C34.0916 48.1538 34.1612 48.1713 34.2319 48.171L34.5089 47.491H36.0046L36.282 48.171H36.2855ZM34.7027 47.0146L35.255 45.6586L35.8072 47.0146H34.7027Z" fill="#0A233F"/>
<path d="M39.518 47.6306V45.9609H39.5141C39.3738 45.9608 39.2392 46.0168 39.1398 46.1165C39.0403 46.2163 38.9841 46.3517 38.9834 46.4932V47.4966C38.7875 47.6756 38.5318 47.7732 38.2676 47.7699C38.1424 47.7616 38.0252 47.7052 37.94 47.6123C37.8549 47.5193 37.8083 47.397 37.8099 47.2704V45.9632C37.6702 45.9637 37.5363 46.02 37.4375 46.1197C37.3387 46.2194 37.2829 46.3545 37.2823 46.4955V47.427C37.2744 47.534 37.2898 47.6414 37.3274 47.7417C37.3651 47.8421 37.424 47.9329 37.5002 48.0077C37.5763 48.0826 37.6678 48.1397 37.7682 48.1751C37.8685 48.2105 37.9754 48.2233 38.0812 48.2126C38.4103 48.2079 38.7286 48.0928 38.9856 47.8852V48.1682C39.1276 48.1681 39.2637 48.1112 39.3643 48.0101C39.4648 47.9089 39.5215 47.7717 39.522 47.6284" fill="#0A233F"/>
<path d="M41.6221 48.057C41.6047 47.969 41.5565 47.8902 41.4864 47.8349C41.4163 47.7797 41.3289 47.7516 41.24 47.7558H41.2137C41.1615 47.7597 41.1091 47.752 41.0602 47.7333C41.0112 47.7146 40.967 47.6852 40.9305 47.6474C40.894 47.6095 40.8663 47.5641 40.8491 47.5142C40.8319 47.4644 40.8258 47.4113 40.8311 47.3588V46.3873H41.1081C41.1536 46.3875 41.1986 46.3786 41.2406 46.3612C41.2827 46.3438 41.3209 46.3182 41.353 46.2858C41.3852 46.2535 41.4108 46.215 41.4282 46.1727C41.4456 46.1304 41.4546 46.0849 41.4546 46.0391V45.9597H40.8316V45.3467H40.6676C40.6193 45.3466 40.5714 45.3562 40.5268 45.3748C40.4821 45.3934 40.4416 45.4207 40.4074 45.4551C40.3732 45.4896 40.3461 45.5305 40.3276 45.5755C40.3091 45.6205 40.2996 45.6688 40.2996 45.7175V45.9615C40.2541 45.9614 40.2091 45.9704 40.1671 45.9879C40.1251 46.0054 40.0869 46.031 40.0548 46.0634C40.0226 46.0958 39.9971 46.1343 39.9796 46.1766C39.9622 46.2189 39.9532 46.2643 39.9531 46.3101V46.3891H40.2996V47.4457C40.2907 47.5477 40.3039 47.6504 40.3381 47.7468C40.3723 47.8432 40.4267 47.931 40.4977 48.0042C40.5688 48.0773 40.6546 48.1341 40.7494 48.1707C40.8442 48.2072 40.9457 48.2226 41.047 48.2158C41.2482 48.2131 41.4455 48.1599 41.6212 48.061L41.6221 48.057Z" fill="#0A233F"/>
<path d="M43.5405 45.9182C43.2123 45.9231 42.8946 46.0361 42.6357 46.2398V45.0771H42.6317C42.4915 45.077 42.357 45.133 42.2576 45.2328C42.1582 45.3325 42.1021 45.468 42.1015 45.6095V47.6291C42.1019 47.7724 42.1585 47.9097 42.2591 48.0109C42.3596 48.1121 42.4959 48.169 42.6379 48.169V46.6315C42.8336 46.4515 43.0893 46.3526 43.3541 46.3547C43.4794 46.3641 43.5964 46.4214 43.6813 46.5149C43.7661 46.6084 43.8125 46.731 43.8109 46.8577V47.6358C43.8116 47.7767 43.8674 47.9117 43.9662 48.0114C44.065 48.1111 44.1988 48.1674 44.3385 48.1681V46.7042C44.3465 46.5972 44.3312 46.4897 44.2936 46.3894C44.256 46.289 44.197 46.1981 44.1209 46.1232C44.0447 46.0483 43.9532 45.9911 43.8528 45.9557C43.7524 45.9202 43.6455 45.9074 43.5397 45.9182" fill="#0A233F"/>
<path d="M46.0759 45.9195C45.8537 45.9354 45.641 46.0165 45.4638 46.1527C45.2867 46.289 45.1528 46.4744 45.0788 46.6864C45.0047 46.8983 44.9936 47.1275 45.0468 47.3457C45.1001 47.5639 45.2154 47.7617 45.3785 47.9147C45.5416 48.0677 45.7455 48.1693 45.9651 48.207C46.1847 48.2446 46.4105 48.2168 46.6146 48.1268C46.8187 48.0368 46.9923 47.8886 47.114 47.7004C47.2358 47.5122 47.3004 47.2922 47.2999 47.0675C47.2966 46.9103 47.262 46.7554 47.1983 46.6119C47.1345 46.4684 47.0428 46.3393 46.9286 46.2323C46.8145 46.1252 46.6802 46.0423 46.5337 45.9886C46.3872 45.9349 46.2315 45.9114 46.0759 45.9195ZM46.0759 47.756C45.9415 47.7531 45.8109 47.7102 45.7004 47.6328C45.59 47.5554 45.5047 47.4468 45.4552 47.3207C45.4057 47.1945 45.3941 47.0564 45.4221 46.9237C45.45 46.791 45.5161 46.6696 45.6121 46.5746C45.7081 46.4796 45.8298 46.4153 45.9618 46.3898C46.0939 46.3643 46.2305 46.3786 46.3545 46.431C46.4785 46.4835 46.5845 46.5717 46.659 46.6846C46.7336 46.7975 46.7735 46.9301 46.7737 47.0658C46.7746 47.1578 46.7571 47.2491 46.7222 47.3342C46.6873 47.4193 46.6357 47.4963 46.5705 47.5608C46.5053 47.6253 46.4279 47.6758 46.3429 47.7093C46.2579 47.7428 46.1671 47.7587 46.0759 47.756Z" fill="#0A233F"/>
<path d="M48.384 46.377V45.9614C48.2421 45.9614 48.1059 46.0181 48.0054 46.1192C47.9048 46.2203 47.8481 46.3575 47.8477 46.5008V48.1704C47.9896 48.1704 48.1258 48.1137 48.2263 48.0125C48.3268 47.9114 48.3836 47.7742 48.384 47.631V46.7962C48.5269 46.6349 48.7087 46.5136 48.9116 46.444C49.0156 46.4132 49.1072 46.3499 49.1731 46.2631C49.2391 46.1763 49.2759 46.0707 49.2783 45.9614V45.917C49.1048 45.924 48.9349 45.9687 48.7801 46.0482C48.6254 46.1277 48.4895 46.24 48.3818 46.3774" fill="#0A233F"/>
<path d="M50.2417 47.6375V45.9639C50.1016 45.9639 49.9671 46.0199 49.8679 46.1196C49.7686 46.2194 49.7125 46.3548 49.7119 46.4962V48.1698C49.7814 48.1701 49.8502 48.1566 49.9145 48.1299C49.9788 48.1033 50.0372 48.0642 50.0864 48.0147C50.1356 47.9652 50.1747 47.9065 50.2013 47.8417C50.228 47.777 50.2417 47.7076 50.2417 47.6375Z" fill="#0A233F"/>
<path d="M49.9751 45.6742C50.0281 45.6702 50.0788 45.6507 50.121 45.6181C50.1632 45.5855 50.195 45.5412 50.2126 45.4905C50.2302 45.4399 50.2327 45.3853 50.2199 45.3332C50.2072 45.2812 50.1796 45.234 50.1406 45.1976C50.1017 45.1611 50.053 45.1369 50.0006 45.1279C49.9482 45.1189 49.8944 45.1256 49.8457 45.147C49.797 45.1685 49.7555 45.2038 49.7264 45.2487C49.6973 45.2935 49.6819 45.346 49.6819 45.3996C49.683 45.4372 49.6914 45.4741 49.7068 45.5084C49.7222 45.5426 49.7442 45.5734 49.7715 45.5989C49.7988 45.6245 49.8308 45.6443 49.8658 45.6572C49.9008 45.6701 49.9379 45.6759 49.9751 45.6742Z" fill="#0A233F"/>
<path d="M51.8025 48.2152C52.0038 48.2125 52.2013 48.1595 52.3772 48.0608V48.0586C52.3596 47.9705 52.3114 47.8918 52.2412 47.8365C52.171 47.7812 52.0836 47.7532 51.9947 47.7574H51.9683C51.9159 47.7613 51.8634 47.7535 51.8143 47.7346C51.7653 47.7157 51.721 47.6862 51.6845 47.6481C51.6481 47.61 51.6204 47.5643 51.6034 47.5142C51.5864 47.4641 51.5805 47.4108 51.5862 47.3582V46.3867H51.8636C51.909 46.3868 51.954 46.3778 51.9959 46.3603C52.0379 46.3429 52.076 46.3172 52.1081 46.2849C52.1403 46.2526 52.1658 46.2142 52.1832 46.1719C52.2006 46.1296 52.2096 46.0843 52.2096 46.0385V45.9591H51.5862V45.3496H51.402C51.3566 45.3495 51.3117 45.3584 51.2698 45.3758C51.2279 45.3932 51.1898 45.4188 51.1577 45.4511C51.1256 45.4834 51.1001 45.5218 51.0827 45.5641C51.0654 45.6063 51.0564 45.6516 51.0564 45.6974V45.9635C50.9647 45.9634 50.8767 46 50.8118 46.0653C50.7468 46.1306 50.7102 46.2192 50.71 46.3118V46.3911H51.0564V47.4478C51.0476 47.5498 51.0607 47.6525 51.0949 47.7489C51.1291 47.8453 51.1836 47.9331 51.2546 48.0062C51.3256 48.0794 51.4114 48.1362 51.5062 48.1727C51.6011 48.2092 51.7026 48.2246 51.8038 48.2178" fill="#0A233F"/>
<path d="M53.9574 48.3826L54.9286 45.9575H54.704C54.6074 45.9578 54.5132 45.9877 54.4338 46.0431C54.3543 46.0985 54.2934 46.1769 54.259 46.268L53.7613 47.5894L53.2311 46.2587C53.1963 46.1697 53.1357 46.0933 53.0573 46.0395C52.9789 45.9857 52.8862 45.957 52.7914 45.957H52.5505L53.5256 48.2375L53.4914 48.3089C53.3559 48.5613 53.2276 48.6638 53.0218 48.6638H52.9752C52.8767 48.6577 52.7788 48.6828 52.6951 48.7354C52.6113 48.788 52.5459 48.8656 52.5078 48.9575C52.6945 49.0308 52.8923 49.0713 53.0926 49.0772C53.293 49.0758 53.4873 49.0072 53.6448 48.8823C53.8024 48.7574 53.9144 48.5831 53.9631 48.387L53.9574 48.3826Z" fill="#0A233F"/>
<path d="M57.4319 45.4299H57.4359C57.5234 45.4304 57.6083 45.4004 57.6765 45.3452C57.7447 45.29 57.792 45.2128 57.8105 45.1265L57.8145 45.1083C57.6553 45.0583 57.4896 45.0329 57.3229 45.0329C57.2196 45.021 57.1149 45.0323 57.0165 45.0661C56.9181 45.0999 56.8283 45.1553 56.7536 45.2283C56.6789 45.3014 56.6212 45.3902 56.5846 45.4884C56.5481 45.5866 56.5335 45.6917 56.5421 45.7963V45.9595C56.4993 45.9594 56.4569 45.9678 56.4174 45.9842C56.3778 46.0007 56.3419 46.0248 56.3116 46.0552C56.2813 46.0856 56.2572 46.1218 56.2408 46.1617C56.2243 46.2015 56.2159 46.2442 56.2158 46.2874V46.3889H56.5421V47.8084C56.542 47.8561 56.5513 47.9033 56.5693 47.9474C56.5874 47.9914 56.614 48.0314 56.6474 48.0651C56.6809 48.0988 56.7206 48.1255 56.7643 48.1436C56.808 48.1617 56.8549 48.171 56.9021 48.1708H57.078V46.3911H57.3937C57.4364 46.3913 57.4788 46.3829 57.5183 46.3665C57.5578 46.3501 57.5937 46.326 57.624 46.2956C57.6543 46.2652 57.6784 46.2291 57.6948 46.1893C57.7113 46.1495 57.7198 46.1069 57.7199 46.0638V45.9618H57.078V45.807C57.0729 45.7578 57.0784 45.708 57.0943 45.6612C57.1102 45.6144 57.136 45.5716 57.1699 45.5359C57.2039 45.5002 57.2452 45.4724 57.2909 45.4545C57.3366 45.4366 57.3856 45.4289 57.4346 45.4321" fill="#0A233F"/>
<path d="M59.2556 45.9195C59.0334 45.9354 58.8207 46.0165 58.6435 46.1527C58.4664 46.289 58.3325 46.4744 58.2584 46.6864C58.1843 46.8983 58.1733 47.1275 58.2265 47.3457C58.2798 47.5639 58.395 47.7617 58.5582 47.9147C58.7213 48.0677 58.9252 48.1693 59.1448 48.207C59.3644 48.2446 59.5901 48.2168 59.7942 48.1268C59.9983 48.0368 60.172 47.8886 60.2937 47.7004C60.4155 47.5122 60.4801 47.2922 60.4796 47.0675C60.4763 46.9103 60.4417 46.7554 60.378 46.6119C60.3142 46.4684 60.2225 46.3393 60.1083 46.2323C59.9942 46.1252 59.8599 46.0423 59.7134 45.9886C59.5669 45.9349 59.4112 45.9114 59.2556 45.9195ZM59.2556 47.756C59.1212 47.7531 58.9905 47.7102 58.8801 47.6328C58.7697 47.5554 58.6844 47.4468 58.6349 47.3207C58.5853 47.1945 58.5738 47.0564 58.6017 46.9237C58.6296 46.791 58.6958 46.6696 58.7918 46.5746C58.8878 46.4796 59.0094 46.4153 59.1415 46.3898C59.2736 46.3643 59.4102 46.3786 59.5342 46.431C59.6582 46.4835 59.7641 46.5717 59.8387 46.6846C59.9133 46.7975 59.9531 46.9301 59.9533 47.0658C59.9543 47.1578 59.9368 47.2491 59.9018 47.3342C59.8669 47.4193 59.8154 47.4963 59.7502 47.5608C59.685 47.6253 59.6076 47.6758 59.5226 47.7093C59.4376 47.7428 59.3468 47.7587 59.2556 47.756Z" fill="#0A233F"/>
<path d="M61.5661 47.6699V46.7961C61.7091 46.6349 61.8908 46.5136 62.0937 46.4439H62.0959C62.1998 46.413 62.2913 46.3496 62.3572 46.2629C62.423 46.1761 62.4598 46.0705 62.4622 45.9612V45.9169C62.2887 45.9238 62.1187 45.9686 61.964 46.0481C61.8092 46.1276 61.6734 46.2399 61.5657 46.3773V45.9617H61.527C61.4617 45.9616 61.397 45.9744 61.3366 45.9996C61.2762 46.0247 61.2213 46.0616 61.1751 46.1082C61.1289 46.1547 61.0922 46.21 61.0672 46.2709C61.0422 46.3318 61.0293 46.397 61.0293 46.4629V48.1712H61.068C61.1333 48.1714 61.198 48.1585 61.2584 48.1334C61.3187 48.1084 61.3736 48.0715 61.4198 48.025C61.4661 47.9784 61.5028 47.9232 61.5278 47.8623C61.5528 47.8015 61.5657 47.7362 61.5657 47.6704" fill="#0A233F"/>
<path d="M65.2976 47.7125C65.0364 47.7086 64.7778 47.6603 64.5326 47.5697C64.4087 47.523 64.2727 47.5207 64.1475 47.5634C64.0222 47.6061 63.9153 47.691 63.8449 47.8039C64.2631 48.0761 64.7511 48.219 65.2488 48.2151C66.0261 48.2151 66.5176 47.8793 66.5176 47.2605C66.5018 46.7282 66.1839 46.5579 65.5042 46.3685L65.1701 46.2744C64.6864 46.1413 64.5954 46.0708 64.5954 45.908C64.5954 45.6578 64.8179 45.5332 65.1477 45.5332C65.3606 45.538 65.5716 45.5757 65.7733 45.645C65.8982 45.6847 66.0329 45.6794 66.1543 45.6299C66.2758 45.5805 66.3764 45.49 66.439 45.3739L66.4433 45.3655C66.0619 45.1476 65.6309 45.0333 65.1925 45.0337C64.8826 45.02 64.5759 45.1017 64.3132 45.2679C64.2033 45.342 64.1144 45.4437 64.0552 45.5629C63.996 45.6821 63.9685 45.8148 63.9755 45.9479C63.9935 46.451 64.2833 46.6324 65.0114 46.8174L65.3574 46.9061C65.797 47.0165 65.9158 47.0795 65.9158 47.2916C65.9158 47.5786 65.6687 47.7107 65.2963 47.7107" fill="#0A233F"/>
<path d="M68.7311 46.4425V47.5013C68.5352 47.6804 68.2793 47.7779 68.0149 47.7741C67.8898 47.766 67.7726 47.7096 67.6875 47.6168C67.6024 47.5239 67.5559 47.4016 67.5577 47.2751V45.9639H67.5027C67.4403 45.9638 67.3785 45.976 67.3209 46C67.2632 46.024 67.2108 46.0593 67.1667 46.1037C67.1225 46.1482 67.0875 46.201 67.0636 46.2591C67.0397 46.3172 67.0274 46.3796 67.0274 46.4425V47.4312C67.0195 47.5383 67.0349 47.6457 67.0726 47.7461C67.1102 47.8465 67.1692 47.9373 67.2454 48.0122C67.3216 48.0871 67.4132 48.1442 67.5136 48.1796C67.614 48.2149 67.7209 48.2276 67.8267 48.2168C68.156 48.2122 68.4742 48.0968 68.7311 47.889V48.172H68.79C68.8524 48.1722 68.9142 48.16 68.9719 48.136C69.0296 48.1121 69.082 48.0769 69.1262 48.0325C69.1704 47.9881 69.2055 47.9353 69.2294 47.8772C69.2534 47.8191 69.2657 47.7568 69.2658 47.6939V45.9639H69.2068C69.1444 45.9636 69.0826 45.9758 69.0248 45.9998C68.9671 46.0238 68.9146 46.059 68.8704 46.1035C68.8262 46.1479 68.7912 46.2008 68.7673 46.259C68.7433 46.3171 68.7311 46.3795 68.7311 46.4425Z" fill="#0A233F"/>
<path d="M70.996 46.438C71.0961 46.4094 71.1844 46.349 71.2477 46.2657C71.3111 46.1825 71.3461 46.0808 71.3477 45.9758V45.915C71.1742 45.922 71.0042 45.9667 70.8494 46.0462C70.6947 46.1257 70.5588 46.238 70.4512 46.3755V45.9598H70.3923C70.3299 45.9597 70.2681 45.9719 70.2104 45.9959C70.1527 46.0199 70.1003 46.0551 70.0561 46.0996C70.012 46.1441 69.977 46.1969 69.9531 46.255C69.9292 46.3132 69.9169 46.3755 69.917 46.4385V48.1685H69.9755C70.0379 48.1686 70.0997 48.1564 70.1574 48.1324C70.215 48.1084 70.2675 48.0732 70.3116 48.0287C70.3558 47.9843 70.3908 47.9314 70.4147 47.8733C70.4386 47.8151 70.4508 47.7528 70.4507 47.6898V46.796C70.5977 46.6309 70.7858 46.5084 70.9955 46.4411L70.996 46.438Z" fill="#0A233F"/>
<path d="M74.0192 45.9637H73.7726C73.677 45.9632 73.5836 45.9919 73.5045 46.046C73.4254 46.1 73.3644 46.177 73.3294 46.2666L72.7952 47.6333L72.2553 46.2649C72.2197 46.1756 72.1585 46.099 72.0796 46.0451C72.0006 45.9911 71.9075 45.9621 71.8121 45.9619H71.5654L72.4619 48.1705H73.1298L74.0218 45.9619L74.0192 45.9637Z" fill="#0A233F"/>
<path d="M75.3928 45.9183C75.2418 45.9145 75.0915 45.9412 74.951 45.9971C74.8105 46.053 74.6825 46.1368 74.5748 46.2436C74.467 46.3503 74.3815 46.4779 74.3236 46.6186C74.2656 46.7593 74.2363 46.9104 74.2373 47.0628C74.2368 47.2165 74.2667 47.3687 74.3255 47.5105C74.3843 47.6523 74.4706 47.7808 74.5795 47.8883C74.6883 47.9958 74.8174 48.0802 74.9591 48.1365C75.1009 48.1928 75.2524 48.2199 75.4047 48.2161C75.7648 48.2178 76.1121 48.0815 76.3763 47.8346L76.0826 47.556C75.902 47.7187 75.6649 47.8027 75.4231 47.7898C75.2647 47.7996 75.1086 47.7472 74.9875 47.6436C74.8664 47.5401 74.7897 47.3933 74.7733 47.234H76.5461V47.0668C76.549 46.9137 76.521 46.7616 76.4638 46.6198C76.4065 46.478 76.3212 46.3494 76.2131 46.242C76.1049 46.1346 75.9762 46.0505 75.8348 45.9949C75.6934 45.9394 75.5423 45.9134 75.3906 45.9188M76.0303 46.9H74.7781C74.787 46.7418 74.8575 46.5936 74.9741 46.4876C75.0908 46.3816 75.2443 46.3263 75.4012 46.334C75.5666 46.3283 75.7279 46.3865 75.8523 46.4968C75.9098 46.5456 75.9557 46.6068 75.9869 46.6759C76.018 46.7449 76.0334 46.8201 76.0321 46.896L76.0303 46.9Z" fill="#0A233F"/>
<path d="M79.1542 45.957H78.9295C78.8329 45.9573 78.7386 45.9871 78.6591 46.0425C78.5796 46.098 78.5186 46.1764 78.4842 46.2675L77.9864 47.589L77.4562 46.2582C77.4214 46.1693 77.3608 46.093 77.2824 46.0392C77.204 45.9855 77.1113 45.9569 77.0165 45.957H76.7756L77.7512 48.2375L77.7165 48.3085C77.5811 48.5609 77.4527 48.6634 77.2469 48.6634H77.2008C77.1023 48.6573 77.0044 48.6823 76.9207 48.7349C76.8369 48.7876 76.7715 48.8652 76.7334 48.957C76.92 49.0308 77.1178 49.0714 77.3182 49.0772C77.5185 49.0757 77.7127 49.0071 77.8702 48.8822C78.0277 48.7572 78.1396 48.5831 78.1883 48.387L78.1843 48.383L79.1542 45.957Z" fill="#0A233F"/>
<path d="M16.2002 50.9866C15.8423 50.9858 15.4913 51.0853 15.1863 51.2741C15.2292 51.3661 15.3048 51.4385 15.3981 51.4769C15.4914 51.5153 15.5957 51.5171 15.6902 51.4817C15.8143 51.4375 15.945 51.4149 16.0766 51.4147C16.4226 51.4147 16.6042 51.5691 16.6042 51.8645V51.8911H15.8568C15.3292 51.8911 15.0007 52.1595 15.0007 52.5791C15.0007 52.9988 15.3164 53.2813 15.8225 53.2813C16.1085 53.2829 16.3857 53.1811 16.6038 52.9943V53.2365H16.7357C16.7883 53.2367 16.8404 53.2264 16.889 53.2062C16.9377 53.186 16.9819 53.1563 17.0191 53.1189C17.0564 53.0814 17.086 53.0369 17.1061 52.9879C17.1263 52.9389 17.1367 52.8864 17.1367 52.8333V51.8131C17.1367 51.2879 16.799 50.9862 16.2019 50.9862M16.6046 52.7007C16.4193 52.8226 16.2025 52.8871 15.9812 52.8861C15.6981 52.8861 15.5301 52.7619 15.5301 52.5463C15.5301 52.3307 15.702 52.2056 15.9957 52.2056H16.6046V52.7007Z" fill="#0A233F"/>
<path d="M19.1886 50.9866C18.8605 50.9916 18.5429 51.1045 18.2842 51.3082V51.0297H18.2803C18.1401 51.0296 18.0055 51.0855 17.9061 51.1853C17.8067 51.2851 17.7506 51.4205 17.75 51.562V52.702C17.7507 52.8434 17.8069 52.9788 17.9062 53.0785C18.0056 53.1783 18.1401 53.2343 18.2803 53.2343H18.2842V51.6973C18.4798 51.5171 18.7356 51.418 19.0004 51.42C19.1258 51.4295 19.2428 51.4868 19.3278 51.5802C19.4127 51.6737 19.4592 51.7963 19.4577 51.923V52.7006C19.4583 52.842 19.5143 52.9774 19.6136 53.0772C19.7129 53.177 19.8474 53.233 19.9875 53.233V51.7691C19.9955 51.6621 19.9801 51.5546 19.9425 51.4541C19.9049 51.3537 19.8459 51.2628 19.7696 51.1879C19.6934 51.113 19.6019 51.0558 19.5014 51.0204C19.401 50.985 19.2941 50.9723 19.1882 50.9831" fill="#0A233F"/>
<path d="M22.2851 50.6791V51.2837C22.1931 51.1847 22.0813 51.1067 21.9571 51.0548C21.833 51.0029 21.6993 50.9782 21.5649 50.9825C21.2806 51.0083 21.0163 51.1405 20.8237 51.3531C20.6312 51.5656 20.5244 51.8432 20.5244 52.1311C20.5244 52.4191 20.6312 52.6966 20.8237 52.9092C21.0163 53.1217 21.2806 53.2539 21.5649 53.2798C21.6995 53.283 21.8333 53.2574 21.9574 53.2047C22.0815 53.152 22.1932 53.0735 22.2851 52.9742V53.2346C22.4252 53.2346 22.5597 53.1785 22.6591 53.0788C22.7585 52.979 22.8146 52.8437 22.8153 52.7022V50.1445C22.6751 50.1444 22.5406 50.2004 22.4412 50.3002C22.3418 50.3999 22.2857 50.5354 22.2851 50.6768M22.2851 52.5177C22.2162 52.6153 22.1242 52.694 22.0174 52.7466C21.9107 52.7992 21.7926 52.8241 21.674 52.8189C21.5877 52.8213 21.502 52.805 21.4224 52.7713C21.3429 52.7376 21.2714 52.6871 21.2127 52.6233C21.0915 52.4882 21.0269 52.3109 21.0325 52.1287C21.0288 52.0407 21.0426 51.953 21.0731 51.8705C21.1035 51.788 21.15 51.7125 21.2097 51.6483C21.2695 51.5842 21.3413 51.5328 21.421 51.497C21.5007 51.4613 21.5867 51.442 21.674 51.4402C21.7926 51.4354 21.9106 51.4604 22.0173 51.5131C22.124 51.5657 22.216 51.6444 22.2851 51.7419V52.5177Z" fill="#0A233F"/>
<path d="M26.208 51.9867H26.9506V52.5123C26.7249 52.6721 26.4535 52.7528 26.1781 52.7421C26.0414 52.7427 25.906 52.7159 25.7797 52.6632C25.6534 52.6106 25.5387 52.5332 25.4423 52.4355C25.3459 52.3377 25.2697 52.2217 25.2181 52.094C25.1665 51.9663 25.1405 51.8296 25.1418 51.6917C25.1408 51.5509 25.1678 51.4112 25.2213 51.2811C25.2747 51.151 25.3534 51.0331 25.4528 50.9342C25.5522 50.8353 25.6703 50.7575 25.8 50.7054C25.9297 50.6534 26.0684 50.6281 26.208 50.6311C26.3846 50.63 26.5593 50.6682 26.7197 50.7429C26.8074 50.7861 26.9062 50.8004 27.0024 50.7839C27.0985 50.7675 27.1871 50.721 27.2557 50.651H27.2597L27.3696 50.537C27.0494 50.2523 26.6365 50.0964 26.2097 50.0992C25.9967 50.0871 25.7835 50.1187 25.5829 50.1921C25.3824 50.2655 25.1986 50.3791 25.0429 50.5262C24.8871 50.6733 24.7625 50.8507 24.6766 51.0477C24.5907 51.2447 24.5452 51.4573 24.5431 51.6725C24.5409 51.8878 24.582 52.1012 24.6639 52.2999C24.7458 52.4987 24.8668 52.6786 25.0196 52.8289C25.1724 52.9791 25.3538 53.0965 25.5528 53.174C25.7519 53.2515 25.9644 53.2875 26.1776 53.2797C26.657 53.2833 27.1221 53.1158 27.4909 52.8069V51.5205H26.6692C26.6087 51.5204 26.5488 51.5322 26.4928 51.5555C26.4369 51.5788 26.3861 51.6129 26.3433 51.656C26.3004 51.6991 26.2664 51.7503 26.2432 51.8066C26.22 51.863 26.208 51.9234 26.208 51.9844" fill="#0A233F"/>
<path d="M29.2518 50.9849C29.1008 50.981 28.9506 51.0079 28.8102 51.0638C28.6697 51.1197 28.5417 51.2035 28.434 51.3103C28.3263 51.417 28.2409 51.5445 28.183 51.6852C28.125 51.8259 28.0957 51.977 28.0968 52.1293C28.0961 52.283 28.1261 52.4353 28.1848 52.5771C28.2436 52.7189 28.3299 52.8474 28.4388 52.9549C28.5476 53.0625 28.6767 53.1469 28.8185 53.2032C28.9603 53.2595 29.1118 53.2865 29.2641 53.2826C29.624 53.2845 29.9712 53.1483 30.2353 52.9016C30.1638 52.8318 30.0741 52.7839 29.9767 52.7633C29.8793 52.7427 29.7781 52.7504 29.6849 52.7854C29.5563 52.8348 29.4196 52.859 29.2821 52.8568C29.1237 52.8665 28.9678 52.814 28.8468 52.7105C28.7258 52.6069 28.6491 52.4602 28.6327 52.301H30.4072V52.1338C30.4102 51.9807 30.3822 51.8286 30.325 51.6868C30.2677 51.545 30.1824 51.4164 30.0743 51.309C29.9661 51.2016 29.8374 51.1175 29.696 51.0619C29.5546 51.0063 29.4035 50.9804 29.2518 50.9857M29.8897 51.967H28.6354C28.6441 51.8087 28.7146 51.6603 28.8314 51.5543C28.9482 51.4482 29.1019 51.3931 29.2588 51.401C29.4241 51.3953 29.5853 51.4535 29.7095 51.5637C29.7671 51.6126 29.8131 51.6738 29.8443 51.7428C29.8755 51.8119 29.891 51.8871 29.8897 51.963V51.967Z" fill="#0A233F"/>
<path d="M32.0583 50.983C31.8361 50.9989 31.6234 51.08 31.4462 51.2162C31.2691 51.3524 31.1352 51.5379 31.0612 51.7499C30.9871 51.9618 30.976 52.191 31.0293 52.4092C31.0825 52.6274 31.1978 52.8252 31.3609 52.9782C31.5241 53.1312 31.728 53.2328 31.9476 53.2704C32.1671 53.3081 32.3929 53.2803 32.597 53.1903C32.8011 53.1003 32.9747 52.9521 33.0965 52.7639C33.2182 52.5757 33.2828 52.3557 33.2824 52.131C33.279 51.9738 33.2445 51.8189 33.1807 51.6754C33.1169 51.5319 33.0252 51.4028 32.9111 51.2957C32.7969 51.1887 32.6626 51.1059 32.5161 51.0521C32.3697 50.9984 32.214 50.9749 32.0583 50.983ZM32.0583 52.8195C31.9677 52.8212 31.8776 52.8045 31.7935 52.7705C31.7093 52.7365 31.6328 52.6858 31.5685 52.6214C31.5041 52.557 31.4532 52.4802 31.4188 52.3956C31.3843 52.311 31.3671 52.2203 31.368 52.1288C31.3726 51.9461 31.4477 51.7725 31.5774 51.6449C31.707 51.5174 31.881 51.446 32.0621 51.446C32.2432 51.446 32.4171 51.5174 32.5468 51.6449C32.6764 51.7725 32.7515 51.9461 32.7561 52.1288C32.7569 52.2209 32.7394 52.3122 32.7044 52.3973C32.6695 52.4824 32.6179 52.5595 32.5527 52.624C32.4875 52.6885 32.41 52.7391 32.325 52.7727C32.24 52.8062 32.1496 52.8222 32.0583 52.8195Z" fill="#0A233F"/>
<path d="M34.8756 51.9354L34.6307 51.8702C34.3264 51.7868 34.2517 51.7372 34.2517 51.6094C34.2517 51.4466 34.3717 51.3676 34.6122 51.3676C34.7573 51.3694 34.9012 51.3934 35.0391 51.4386C35.1315 51.466 35.2305 51.4597 35.3189 51.4211C35.4072 51.3824 35.4794 51.3138 35.5228 51.227C35.2494 51.0662 34.9383 50.9824 34.6219 50.9844C34.0741 50.9844 33.7399 51.2372 33.7399 51.6604C33.7368 51.7308 33.7494 51.801 33.7767 51.8659C33.804 51.9308 33.8454 51.9886 33.8978 52.0352C34.0682 52.1567 34.2611 52.2425 34.4649 52.2877L34.7424 52.3635C35.0172 52.4469 35.0844 52.4966 35.0844 52.6239C35.0844 52.8053 34.9525 52.8989 34.6852 52.8989C34.5023 52.8962 34.3211 52.8625 34.1492 52.7991C34.057 52.7642 33.9553 52.7639 33.8628 52.7983C33.7703 52.8326 33.6932 52.8994 33.6454 52.9863C33.9511 53.1826 34.3066 53.2852 34.6689 53.2817C35.2497 53.2817 35.5879 53.0253 35.5879 52.5835C35.5879 52.2517 35.39 52.0805 34.876 51.9381" fill="#0A233F"/>
<path d="M37.401 50.9809C37.2667 50.9769 37.1331 51.0017 37.0089 51.0536C36.8848 51.1055 36.773 51.1834 36.6809 51.2821V51.0252C36.5389 51.0253 36.4027 51.0822 36.3022 51.1834C36.2016 51.2846 36.1449 51.4218 36.1445 51.5651V54.0957C36.2864 54.0957 36.4226 54.039 36.5231 53.9379C36.6237 53.8368 36.6804 53.6995 36.6809 53.5563V52.9739C36.7725 53.0735 36.8841 53.1522 37.0083 53.2048C37.1325 53.2575 37.2664 53.2828 37.401 53.2791C37.6844 53.2521 37.9475 53.1195 38.1391 52.9071C38.3306 52.6948 38.4368 52.418 38.4368 52.1309C38.4368 51.8437 38.3306 51.567 38.1391 51.3546C37.9475 51.1423 37.6844 51.0096 37.401 50.9826M37.7528 52.6275C37.6941 52.6913 37.6227 52.7418 37.5431 52.7756C37.4636 52.8093 37.3778 52.8255 37.2916 52.8231C37.1729 52.828 37.0548 52.803 36.9481 52.7504C36.8414 52.6977 36.7494 52.619 36.6804 52.5214V51.7434C36.7493 51.6458 36.8413 51.5671 36.9481 51.5145C37.0548 51.4619 37.1729 51.437 37.2916 51.4422C37.3782 51.4396 37.4644 51.4562 37.544 51.4907C37.6237 51.5251 37.6949 51.5767 37.7528 51.6418C37.8744 51.7751 37.939 51.9514 37.9326 52.1324C37.9385 52.3147 37.874 52.4922 37.7528 52.6275Z" fill="#0A233F"/>
<path d="M40.0997 50.9866C39.7419 50.9858 39.3908 51.0853 39.0858 51.2741C39.1288 51.3661 39.2044 51.4385 39.2977 51.4769C39.391 51.5153 39.4952 51.5171 39.5897 51.4817C39.7139 51.4375 39.8445 51.4149 39.9761 51.4147C40.3226 51.4147 40.5038 51.5691 40.5038 51.8645V51.8911H39.7563C39.2287 51.8911 38.9003 52.1595 38.9003 52.5791C38.9003 52.9988 39.216 53.2813 39.7216 53.2813C40.0076 53.2828 40.2847 53.181 40.5029 52.9943V53.2365H40.6348C40.6873 53.2366 40.7394 53.2263 40.788 53.2061C40.8367 53.1859 40.8809 53.1562 40.9181 53.1187C40.9553 53.0813 40.9849 53.0368 41.0051 52.9878C41.0253 52.9389 41.0357 52.8863 41.0358 52.8333V51.8131C41.0358 51.2879 40.6976 50.9862 40.101 50.9862M40.5038 52.7007C40.3184 52.8226 40.1016 52.8871 39.8803 52.8861C39.5971 52.8861 39.4292 52.7619 39.4292 52.5463C39.4292 52.3307 39.6016 52.2056 39.8944 52.2056H40.5033L40.5038 52.7007Z" fill="#0A233F"/>
<path d="M42.7383 52.8213H42.6943C42.6421 52.8252 42.5898 52.8176 42.5409 52.7988C42.492 52.7801 42.4477 52.7508 42.4113 52.7129C42.3749 52.6751 42.3471 52.6296 42.33 52.5797C42.3129 52.5298 42.3068 52.4768 42.3122 52.4243V51.4529H42.5892C42.6346 51.453 42.6797 51.4441 42.7217 51.4266C42.7637 51.4092 42.8018 51.3836 42.834 51.3512C42.8662 51.3189 42.8917 51.2805 42.9092 51.2382C42.9266 51.1958 42.9356 51.1505 42.9357 51.1046V51.0257H42.3122V50.4131H42.128C42.0826 50.413 42.0377 50.4219 41.9957 50.4393C41.9537 50.4567 41.9156 50.4823 41.8834 50.5146C41.8512 50.5469 41.8257 50.5853 41.8082 50.6275C41.7907 50.6698 41.7817 50.7151 41.7816 50.7609V51.027C41.7362 51.0269 41.6913 51.0358 41.6493 51.0532C41.6074 51.0707 41.5692 51.0963 41.5371 51.1286C41.505 51.1609 41.4794 51.1992 41.462 51.2415C41.4446 51.2837 41.4356 51.329 41.4355 51.3748V51.4542H41.7816V52.5108C41.7727 52.6128 41.7858 52.7155 41.82 52.8119C41.8543 52.9083 41.9087 52.9961 41.9797 53.0693C42.0507 53.1424 42.1366 53.1992 42.2314 53.2357C42.3262 53.2723 42.4277 53.2877 42.529 53.2809C42.7304 53.278 42.9278 53.2247 43.1036 53.1256L43.0997 53.107C43.0842 53.0237 43.039 52.9489 42.9727 52.8968C42.9064 52.8446 42.8235 52.8188 42.7396 52.824" fill="#0A233F"/>
<path d="M43.627 51.5626V53.2362C43.7671 53.2362 43.9016 53.1803 44.001 53.0805C44.1003 52.9808 44.1565 52.8453 44.1572 52.7039V51.0303C44.017 51.0302 43.8824 51.0861 43.7831 51.1859C43.6837 51.2857 43.6275 51.4211 43.627 51.5626Z" fill="#0A233F"/>
<path d="M43.8906 50.1904C43.8373 50.1936 43.7862 50.2125 43.7435 50.2447C43.7008 50.2768 43.6683 50.3209 43.6502 50.3714C43.632 50.422 43.6289 50.4768 43.6412 50.5292C43.6535 50.5815 43.6808 50.629 43.7196 50.6659C43.7584 50.7028 43.807 50.7274 43.8595 50.7367C43.912 50.746 43.9661 50.7396 44.015 50.7183C44.064 50.697 44.1057 50.6617 44.1349 50.6168C44.1642 50.5718 44.1799 50.5192 44.1799 50.4654C44.1776 50.3903 44.1458 50.3191 44.0916 50.2676C44.0373 50.216 43.965 50.1883 43.8906 50.1904Z" fill="#0A233F"/>
<path d="M45.9182 50.9868C45.5603 50.9859 45.2093 51.0854 44.9043 51.2742C44.9473 51.3661 45.0229 51.4385 45.1162 51.4769C45.2095 51.5153 45.3137 51.5171 45.4082 51.4818C45.5323 51.4376 45.663 51.415 45.7946 51.4148C46.1411 51.4148 46.3222 51.5692 46.3222 51.8646V51.8912H45.5748C45.0472 51.8912 44.7188 52.1596 44.7188 52.5792C44.7188 52.9989 45.0345 53.2814 45.5401 53.2814C45.8261 53.2829 46.1032 53.1811 46.3214 52.9944V53.2366H46.4532C46.5058 53.2368 46.5579 53.2264 46.6065 53.2062C46.6551 53.186 46.6992 53.1563 46.7364 53.1188C46.7736 53.0814 46.8031 53.0369 46.8233 52.9879C46.8434 52.939 46.8538 52.8864 46.8538 52.8334V51.8132C46.8538 51.288 46.5161 50.9863 45.9191 50.9863M46.3222 52.7008C46.1368 52.8226 45.9201 52.8871 45.6988 52.8862C45.4156 52.8862 45.2477 52.762 45.2477 52.5464C45.2477 52.3308 45.42 52.2058 45.7137 52.2058H46.3227L46.3222 52.7008Z" fill="#0A233F"/>
<path d="M47.4678 50.6836V53.2369C47.6097 53.2367 47.7458 53.1799 47.8463 53.0789C47.9469 52.9778 48.0036 52.8406 48.0042 52.6975V50.1455C47.8622 50.1456 47.726 50.2025 47.6255 50.3037C47.525 50.4049 47.4682 50.5421 47.4678 50.6853" fill="#0A233F"/>
<path d="M49.8379 50.7182V53.2369C49.9128 53.2372 49.9871 53.2226 50.0564 53.1939C50.1257 53.1652 50.1888 53.123 50.2419 53.0697C50.295 53.0163 50.3371 52.9529 50.3659 52.8831C50.3947 52.8133 50.4095 52.7385 50.4095 52.6629V50.1455C50.2582 50.1455 50.1132 50.2059 50.0061 50.3136C49.8989 50.4213 49.8385 50.5674 49.8379 50.7199" fill="#0A233F"/>
<path d="M52.588 50.9868C52.2598 50.9917 51.942 51.1046 51.6832 51.3084V51.0298H51.6792C51.6098 51.0295 51.5409 51.0431 51.4766 51.0697C51.4124 51.0963 51.354 51.1354 51.3047 51.1849C51.2555 51.2344 51.2165 51.2932 51.1898 51.3579C51.1631 51.4226 51.1494 51.492 51.1494 51.5621V52.7021C51.15 52.8435 51.2061 52.9789 51.3054 53.0786C51.4047 53.1784 51.5391 53.2344 51.6792 53.2344H51.6832V51.6974C51.8789 51.5172 52.1349 51.4182 52.3998 51.4201C52.5251 51.4296 52.6421 51.4869 52.727 51.5804C52.8119 51.6738 52.8582 51.7964 52.8566 51.9232V52.7008C52.8573 52.8422 52.9135 52.9776 53.0129 53.0773C53.1122 53.1771 53.2467 53.2331 53.3869 53.2331V51.7692C53.3949 51.6622 53.3795 51.5547 53.3419 51.4543C53.3042 51.3538 53.2453 51.2629 53.1691 51.188C53.0929 51.1131 53.0013 51.0559 52.9008 51.0205C52.8004 50.9851 52.6934 50.9724 52.5876 50.9832" fill="#0A233F"/>
<path d="M54.109 50.8623V51.0255C54.0663 51.0254 54.0239 51.0338 53.9844 51.0502C53.9449 51.0666 53.9089 51.0907 53.8787 51.1212C53.8484 51.1517 53.8244 51.1878 53.808 51.2277C53.7916 51.2675 53.7832 51.3102 53.7832 51.3533V51.4549H54.109V52.9311C54.109 52.9713 54.1169 53.0111 54.1321 53.0481C54.1474 53.0852 54.1697 53.1189 54.1979 53.1473C54.2261 53.1756 54.2595 53.1981 54.2963 53.2134C54.3331 53.2287 54.3726 53.2364 54.4124 53.2363H54.6454V51.4571H54.9611C55.0038 51.4572 55.0462 51.4488 55.0857 51.4324C55.1252 51.416 55.1611 51.3919 55.1914 51.3614C55.2217 51.331 55.2457 51.2948 55.2621 51.2549C55.2785 51.2151 55.2869 51.1724 55.2869 51.1293V51.0277H54.6436V50.8729C54.6385 50.8238 54.644 50.7741 54.6599 50.7274C54.6757 50.6806 54.7014 50.6379 54.7353 50.6022C54.7692 50.5666 54.8103 50.5388 54.8559 50.5208C54.9015 50.5028 54.9505 50.495 54.9994 50.4981H55.0319C55.1088 50.5018 55.1846 50.4781 55.246 50.4312C55.3075 50.3842 55.3505 50.317 55.3678 50.2413L55.3819 50.1743C55.2225 50.1246 55.0567 50.0993 54.8899 50.0993C54.7865 50.0874 54.6819 50.0988 54.5835 50.1326C54.485 50.1664 54.3952 50.2218 54.3206 50.2948C54.2459 50.3678 54.1882 50.4566 54.1516 50.5548C54.115 50.653 54.1005 50.7582 54.109 50.8627" fill="#0A233F"/>
<path d="M56.823 50.983C56.6008 50.9989 56.3881 51.08 56.2109 51.2162C56.0338 51.3524 55.8999 51.5379 55.8258 51.7499C55.7517 51.9618 55.7406 52.191 55.7939 52.4092C55.8471 52.6274 55.9624 52.8252 56.1256 52.9782C56.2887 53.1312 56.4926 53.2328 56.7122 53.2704C56.9318 53.3081 57.1575 53.2803 57.3616 53.1903C57.5657 53.1003 57.7394 52.9521 57.8611 52.7639C57.9829 52.5757 58.0475 52.3557 58.047 52.131C58.0437 51.9738 58.0091 51.8189 57.9454 51.6754C57.8816 51.5319 57.7899 51.4028 57.6757 51.2957C57.5616 51.1887 57.4273 51.1059 57.2808 51.0521C57.1343 50.9984 56.9786 50.9749 56.823 50.983ZM56.823 52.8195C56.7324 52.8212 56.6423 52.8045 56.5581 52.7705C56.474 52.7365 56.3975 52.6858 56.3331 52.6214C56.2687 52.557 56.2178 52.4802 56.1834 52.3956C56.149 52.311 56.1318 52.2203 56.1327 52.1288C56.1373 51.9461 56.2124 51.7725 56.342 51.6449C56.4717 51.5174 56.6456 51.446 56.8267 51.446C57.0078 51.446 57.1817 51.5174 57.3114 51.6449C57.4411 51.7725 57.5162 51.9461 57.5207 52.1288C57.5216 52.2209 57.5041 52.3122 57.4691 52.3972C57.4342 52.4823 57.3826 52.5594 57.3175 52.6238C57.2523 52.6883 57.1749 52.7389 57.09 52.7725C57.005 52.8061 56.9142 52.8221 56.823 52.8195Z" fill="#0A233F"/>
<path d="M59.1331 51.4424V51.0268H59.0944C59.0291 51.0267 58.9644 51.0395 58.904 51.0647C58.8436 51.0898 58.7887 51.1267 58.7425 51.1733C58.6963 51.2198 58.6596 51.2751 58.6346 51.336C58.6096 51.3969 58.5967 51.4621 58.5967 51.528V53.2363H58.6354C58.7007 53.2365 58.7654 53.2236 58.8257 53.1985C58.8861 53.1734 58.941 53.1366 58.9872 53.0901C59.0334 53.0436 59.0701 52.9883 59.0952 52.9274C59.1202 52.8666 59.1331 52.8014 59.1331 52.7355V51.8616C59.2759 51.7003 59.4577 51.579 59.6607 51.5094H59.6633C59.7672 51.4785 59.8586 51.4151 59.9245 51.3284C59.9903 51.2416 60.0271 51.136 60.0296 51.0268V50.9824C59.8561 50.9894 59.6861 51.0341 59.5314 51.1136C59.3766 51.1931 59.2407 51.3054 59.1331 51.4429" fill="#0A233F"/>
<path d="M63.4017 50.9826V50.9866C63.0587 50.9821 62.727 51.1103 62.4749 51.345C62.4105 51.2279 62.3141 51.1318 62.1972 51.0683C62.0803 51.0048 61.9478 50.9764 61.8154 50.9866C61.4989 50.9911 61.1954 51.1137 60.9633 51.3309V51.0292C60.8214 51.0293 60.6853 51.0861 60.5848 51.1872C60.4843 51.2883 60.4275 51.4254 60.4269 51.5686V52.7046C60.4276 52.8461 60.4838 52.9814 60.5832 53.0812C60.6825 53.1809 60.817 53.2369 60.9572 53.2369H60.9611V51.6591C61.1309 51.5047 61.3516 51.4198 61.5802 51.4209C61.6447 51.4177 61.7091 51.4289 61.7688 51.4536C61.8286 51.4784 61.8822 51.5161 61.9259 51.5641C61.9695 51.6121 62.0021 51.6693 62.0214 51.7315C62.0407 51.7937 62.0462 51.8594 62.0374 51.9239V52.7015C62.038 52.843 62.0941 52.9784 62.1935 53.0782C62.2929 53.178 62.4275 53.2339 62.5677 53.2338V51.9656C62.5694 51.8613 62.5593 51.7571 62.5373 51.6551C62.7202 51.5 62.9518 51.4156 63.1907 51.4169C63.255 51.4137 63.3192 51.425 63.3788 51.4498C63.4383 51.4747 63.4916 51.5125 63.5349 51.5606C63.5783 51.6086 63.6105 51.6658 63.6294 51.7279C63.6482 51.79 63.6532 51.8556 63.644 51.9199V52.6975C63.6446 52.8389 63.7007 52.9743 63.7999 53.0741C63.8992 53.1738 64.0337 53.2298 64.1738 53.2298H64.1782V51.766C64.1867 51.6604 64.1724 51.5543 64.1361 51.4549C64.0999 51.3555 64.0426 51.2652 63.9683 51.1904C63.894 51.1156 63.8044 51.058 63.7058 51.0217C63.6072 50.9853 63.5019 50.9711 63.3973 50.98" fill="#0A233F"/>
<path d="M65.8762 50.9868C65.5183 50.9859 65.1673 51.0854 64.8623 51.2742C64.9052 51.3663 64.9808 51.4387 65.0741 51.4772C65.1674 51.5156 65.2717 51.5173 65.3662 51.4818C65.4903 51.4377 65.621 51.415 65.7526 51.4148C66.0991 51.4148 66.2802 51.5692 66.2802 51.8646V51.8912H65.5328C65.0052 51.8912 64.6768 52.1596 64.6768 52.5792C64.6768 52.9989 64.9924 53.2814 65.4985 53.2814C65.7846 53.2831 66.0617 53.1812 66.2798 52.9944V53.2366H66.4117C66.4643 53.2368 66.5164 53.2265 66.565 53.2063C66.6137 53.1861 66.6579 53.1565 66.6951 53.119C66.7324 53.0815 66.762 53.0371 66.7821 52.988C66.8023 52.939 66.8127 52.8865 66.8127 52.8334V51.8132C66.8127 51.288 66.475 50.9863 65.8779 50.9863M66.2802 52.7008C66.095 52.8227 65.8784 52.8872 65.6572 52.8862C65.3741 52.8862 65.2061 52.762 65.2061 52.5464C65.2061 52.3308 65.3785 52.2058 65.6717 52.2058H66.2807L66.2802 52.7008Z" fill="#0A233F"/>
<path d="M68.4966 52.8213H68.4702C68.4181 52.8252 68.3657 52.8176 68.3167 52.7988C68.2678 52.7801 68.2236 52.7508 68.1871 52.7129C68.1506 52.6751 68.1228 52.6296 68.1057 52.5797C68.0885 52.5299 68.0824 52.4768 68.0877 52.4243V51.4529H68.3652C68.4105 51.4529 68.4555 51.444 68.4974 51.4265C68.5394 51.409 68.5775 51.3834 68.6097 51.3511C68.6418 51.3187 68.6673 51.2803 68.6847 51.238C68.7021 51.1958 68.7111 51.1504 68.7112 51.1046V51.0257H68.089V50.4131H67.9053C67.8599 50.413 67.815 50.4219 67.773 50.4393C67.7311 50.4567 67.6929 50.4823 67.6608 50.5146C67.6286 50.5469 67.6032 50.5853 67.5857 50.6275C67.5683 50.6698 67.5593 50.7151 67.5592 50.7609V51.027C67.4676 51.0269 67.3797 51.0634 67.3147 51.1286C67.2498 51.1938 67.2131 51.2824 67.2128 51.3748V51.4542H67.5592V52.5108C67.5504 52.6128 67.5635 52.7155 67.5977 52.8119C67.6319 52.9083 67.6864 52.9961 67.7574 53.0693C67.8284 53.1424 67.9143 53.1992 68.0091 53.2357C68.1039 53.2723 68.2054 53.2877 68.3067 53.2809C68.5081 53.2782 68.7056 53.2249 68.8813 53.1256C68.864 53.0376 68.8158 52.9587 68.7457 52.9033C68.6756 52.848 68.5882 52.8198 68.4993 52.824" fill="#0A233F"/>
<path d="M69.6661 50.1904C69.6129 50.1936 69.5618 50.2125 69.5191 50.2447C69.4764 50.2768 69.4439 50.3209 69.4257 50.3714C69.4076 50.422 69.4044 50.4768 69.4168 50.5292C69.4291 50.5815 69.4564 50.629 69.4952 50.6659C69.534 50.7028 69.5826 50.7274 69.6351 50.7367C69.6876 50.746 69.7416 50.7396 69.7906 50.7183C69.8395 50.697 69.8812 50.6617 69.9105 50.6168C69.9398 50.5718 69.9554 50.5192 69.9554 50.4654C69.9531 50.3903 69.9214 50.3191 69.8671 50.2676C69.8129 50.216 69.7406 50.1883 69.6661 50.1904Z" fill="#0A233F"/>
<path d="M69.4033 51.5626V53.2362C69.5435 53.2362 69.6779 53.1802 69.7772 53.0805C69.8765 52.9807 69.9325 52.8453 69.9331 52.7039V51.0303C69.8637 51.03 69.7948 51.0435 69.7305 51.0702C69.6663 51.0968 69.6079 51.136 69.5586 51.1854C69.5094 51.2349 69.4704 51.2936 69.4437 51.3584C69.4171 51.4231 69.4033 51.4925 69.4033 51.5626Z" fill="#0A233F"/>
<path d="M71.7351 50.983C71.5129 50.9989 71.3002 51.08 71.123 51.2162C70.9459 51.3524 70.812 51.5379 70.7379 51.7499C70.6638 51.9618 70.6527 52.191 70.706 52.4092C70.7593 52.6274 70.8745 52.8252 71.0377 52.9782C71.2008 53.1312 71.4047 53.2328 71.6243 53.2704C71.8439 53.3081 72.0696 53.2803 72.2737 53.1903C72.4779 53.1003 72.6515 52.9521 72.7732 52.7639C72.895 52.5757 72.9596 52.3557 72.9591 52.131C72.9558 51.9738 72.9212 51.8189 72.8575 51.6754C72.7937 51.5319 72.702 51.4028 72.5878 51.2957C72.4737 51.1887 72.3394 51.1059 72.1929 51.0521C72.0464 50.9984 71.8908 50.9749 71.7351 50.983ZM71.7351 52.8195C71.6007 52.8166 71.4701 52.7737 71.3597 52.6963C71.2493 52.6189 71.164 52.5104 71.1144 52.3842C71.0649 52.2581 71.0533 52.1201 71.0812 51.9874C71.1091 51.8547 71.1751 51.7332 71.2711 51.6382C71.3671 51.5432 71.4887 51.4789 71.6208 51.4533C71.7528 51.4277 71.8894 51.442 72.0134 51.4944C72.1374 51.5468 72.2434 51.6349 72.318 51.7478C72.3926 51.8606 72.4326 51.9931 72.4328 52.1288C72.4338 52.2209 72.4164 52.3123 72.3815 52.3974C72.3466 52.4825 72.295 52.5596 72.2299 52.6241C72.1647 52.6887 72.0873 52.7392 72.0022 52.7728C71.9172 52.8063 71.8264 52.8222 71.7351 52.8195Z" fill="#0A233F"/>
<path d="M74.9461 50.9866C74.6179 50.9916 74.3002 51.1045 74.0413 51.3082V51.0296H74.0373C73.9678 51.0293 73.8989 51.0428 73.8346 51.0694C73.7703 51.096 73.7118 51.1351 73.6625 51.1846C73.6133 51.2341 73.5742 51.2928 73.5475 51.3576C73.5208 51.4224 73.5071 51.4918 73.5071 51.5619V52.702C73.5078 52.8434 73.564 52.9788 73.6633 53.0785C73.7627 53.1783 73.8971 53.2342 74.0373 53.2342H74.0413V51.6972C74.2372 51.517 74.4933 51.418 74.7584 51.42C74.8837 51.4295 75.0007 51.4867 75.0855 51.5802C75.1704 51.6737 75.2168 51.7962 75.2152 51.923V52.7006C75.2159 52.8419 75.272 52.9773 75.3713 53.077C75.4705 53.1767 75.6049 53.2328 75.745 53.2329V51.7691C75.753 51.6621 75.7376 51.5546 75.7 51.4542C75.6624 51.3538 75.6034 51.263 75.5273 51.188C75.4511 51.1131 75.3596 51.0559 75.2592 51.0205C75.1588 50.9851 75.052 50.9723 74.9461 50.9831" fill="#0A233F"/>
<path d="M17.3832 17.7806C17.6016 17.7685 17.8117 17.6922 17.9876 17.5609C18.1634 17.4297 18.2973 17.2493 18.3726 17.0421C18.4479 16.835 18.4614 16.61 18.4114 16.3952C18.3614 16.1804 18.2501 15.985 18.0912 15.8334C17.9323 15.6817 17.7329 15.5803 17.5175 15.5418C17.3022 15.5032 17.0803 15.5292 16.8794 15.6165C16.6785 15.7038 16.5074 15.8486 16.3872 16.033C16.267 16.2173 16.203 16.4332 16.2031 16.6539C16.2051 16.8067 16.2375 16.9576 16.2983 17.0976C16.3591 17.2376 16.4471 17.3638 16.5571 17.4689C16.6672 17.5739 16.797 17.6556 16.9389 17.7092C17.0808 17.7627 17.2318 17.787 17.3832 17.7806Z" fill="#0A233F"/>
<path d="M20.0972 17.7806C20.2477 17.7866 20.3977 17.7619 20.5385 17.708C20.6793 17.6541 20.8078 17.572 20.9163 17.4667C21.0249 17.3615 21.1112 17.2352 21.1702 17.0954C21.2292 16.9557 21.2596 16.8053 21.2596 16.6534C21.2596 16.5015 21.2292 16.3512 21.1702 16.2114C21.1112 16.0717 21.0249 15.9454 20.9163 15.8401C20.8078 15.7349 20.6793 15.6528 20.5385 15.5989C20.3977 15.5449 20.2477 15.5203 20.0972 15.5263C19.9479 15.5221 19.7992 15.5481 19.66 15.6028C19.5208 15.6576 19.3939 15.7399 19.2867 15.845C19.1796 15.9501 19.0945 16.0758 19.0363 16.2146C18.9782 16.3535 18.9482 16.5027 18.9482 16.6534C18.9482 16.8042 18.9782 16.9534 19.0363 17.0922C19.0945 17.2311 19.1796 17.3568 19.2867 17.4619C19.3939 17.5669 19.5208 17.6493 19.66 17.704C19.7992 17.7588 19.9479 17.7848 20.0972 17.7806Z" fill="#0A233F"/>
<path d="M26.5071 26.9974C26.3587 26.9932 26.2109 27.0191 26.0726 27.0734C25.9342 27.1278 25.8081 27.2097 25.7016 27.3141C25.5952 27.4185 25.5106 27.5434 25.4528 27.6814C25.395 27.8194 25.3652 27.9677 25.3652 28.1175C25.3652 28.2673 25.395 28.4155 25.4528 28.5535C25.5106 28.6915 25.5952 28.8164 25.7016 28.9208C25.8081 29.0253 25.9342 29.1071 26.0726 29.1615C26.2109 29.2159 26.3587 29.2417 26.5071 29.2375C26.6574 29.2449 26.8077 29.2214 26.9488 29.1685C27.0898 29.1155 27.2188 29.0342 27.3278 28.9295C27.4368 28.8247 27.5235 28.6988 27.5828 28.5592C27.6421 28.4196 27.6727 28.2693 27.6727 28.1175C27.6727 27.9656 27.6421 27.8153 27.5828 27.6757C27.5235 27.5362 27.4368 27.4102 27.3278 27.3054C27.2188 27.2007 27.0898 27.1194 26.9488 27.0665C26.8077 27.0135 26.6574 26.99 26.5071 26.9974Z" fill="#0A233F"/>
<path d="M23.7919 26.9971C23.5743 27.0047 23.3638 27.0766 23.1864 27.2039C23.009 27.3313 22.8726 27.5084 22.7941 27.7133C22.7157 27.9182 22.6987 28.1419 22.7453 28.3564C22.7918 28.571 22.8998 28.7671 23.0559 28.9202C23.212 29.0733 23.4093 29.1768 23.6232 29.2178C23.8371 29.2587 24.0582 29.2353 24.259 29.1505C24.4599 29.0657 24.6316 28.9232 24.7528 28.7407C24.874 28.5583 24.9394 28.3439 24.9408 28.1242C24.939 27.974 24.9078 27.8257 24.8491 27.6876C24.7903 27.5496 24.7052 27.4246 24.5984 27.3199C24.4917 27.2152 24.3655 27.1327 24.2271 27.0773C24.0887 27.0219 23.9408 26.9947 23.7919 26.9971Z" fill="#0A233F"/>
<path d="M27.9294 23.7338C27.8932 23.749 27.8562 23.7624 27.8186 23.7737C27.0998 23.9581 26.3419 23.9129 25.6497 23.6441L25.6413 23.6402V18.806H25.287C24.8795 18.798 24.4855 18.9534 24.1915 19.2382C23.8975 19.5229 23.7275 19.9137 23.7187 20.3248V23.641C23.1676 23.9954 22.5219 24.1704 21.869 24.1423H21.6105V24.1902C21.607 24.1742 21.6033 24.1582 21.5995 24.1423V19.6856C20.7588 19.2313 20.32 18.8246 18.9615 18.8246C16.3103 18.8246 15.0137 20.1624 15.0137 22.6044C15.0137 25.0463 16.3916 26.0666 19.1879 26.0666H21.884C23.1445 26.0666 23.6365 25.7836 24.6719 25.2042C24.8931 25.3595 25.1319 25.4874 25.3833 25.5853C26.4994 25.9668 27.7126 25.9424 28.8127 25.5161L28.8254 25.5103C29.1846 25.3472 29.5281 25.151 29.8516 24.9243V18.806H29.4951C29.0876 18.798 28.6936 18.9534 28.3996 19.2382C28.1056 19.5229 27.9355 19.9137 27.9268 20.3248L27.9294 23.7338ZM19.6759 24.1414H18.9136C17.4266 24.1414 16.9218 23.814 16.9218 22.4362C16.9218 21.0119 17.4587 20.5781 18.8168 20.5781C19.4794 20.5781 19.4429 20.8079 19.6759 20.9693V24.1414Z" fill="#0A233F"/>
<path d="M28.8349 15.6203C28.6144 15.628 28.4009 15.7008 28.2211 15.8299C28.0413 15.9589 27.9031 16.1385 27.8236 16.3462C27.7441 16.5538 27.7269 16.7805 27.7741 16.998C27.8212 17.2154 27.9307 17.4141 28.0889 17.5693C28.2471 17.7245 28.447 17.8294 28.6638 17.8709C28.8806 17.9124 29.1047 17.8887 29.3082 17.8027C29.5118 17.7167 29.6858 17.5723 29.8086 17.3874C29.9314 17.2024 29.9977 16.9851 29.9991 16.7625C29.9977 16.6102 29.9664 16.4597 29.907 16.3196C29.8475 16.1796 29.7612 16.0528 29.653 15.9466C29.5447 15.8404 29.4167 15.7569 29.2763 15.7009C29.1359 15.6449 28.9859 15.6175 28.8349 15.6203Z" fill="#0A233F"/>
<path d="M46.9919 19.1323C44.6177 19.1323 43.5665 20.432 43.5665 22.7799C43.5602 23.1168 43.5978 23.4531 43.6782 23.7801C43.6342 23.7992 43.585 23.8183 43.5366 23.8356C43.2578 23.946 42.96 23.9995 42.6605 23.993C42.3611 23.9865 42.0659 23.9202 41.792 23.7979C41.748 23.777 41.7067 23.7535 41.668 23.7336V22.9671C41.6043 20.6041 41.2754 20.5717 38.3991 19.7732L37.3948 19.5071L39.8473 17.6689C40.0112 17.5498 40.1489 17.3979 40.2518 17.2227C40.3547 17.0474 40.4207 16.8526 40.4454 16.6504C40.4702 16.4483 40.4533 16.2431 40.3958 16.0478C40.3382 15.8526 40.2413 15.6714 40.1111 15.5157L35.1016 18.8958L35.5377 20.8068L37.5109 21.3227C39.9682 22.0125 39.6838 21.6669 39.7471 23.0296V23.624C38.813 23.9793 37.821 24.1543 36.8229 24.1399H36.5151C35.5756 24.1572 34.6421 23.987 33.768 23.6391V15.4869H33.4119C33.0044 15.4788 32.6103 15.6342 32.3162 15.9189C32.0221 16.2037 31.8519 16.5946 31.8432 17.0057V23.9372C31.8101 24.2085 31.8688 24.4831 32.0097 24.7166C32.1506 24.9501 32.3655 25.1287 32.6196 25.2236C33.4261 25.5984 34.284 25.8483 35.1644 25.9648C35.6061 26.0347 36.0526 26.0695 36.4997 26.0691H36.6136C38.0336 26.079 39.4462 25.8625 40.7992 25.4276C40.9751 25.5146 41.1548 25.5931 41.3383 25.6632L41.3506 25.668C42.1365 25.9698 43.0032 25.98 43.796 25.6969L43.8065 25.6933C44.0285 25.6107 44.246 25.5164 44.4581 25.4108C45.2188 26.3348 45.6866 26.4284 46.9955 26.4284C49.3719 26.4284 50.4029 25.1304 50.4029 22.7825C50.4029 20.4346 49.3719 19.1349 46.9955 19.1349M46.9625 24.6283C45.669 24.6283 45.4777 24.096 45.4777 22.783C45.4777 21.47 45.669 20.9359 46.9625 20.9359C48.3044 20.9359 48.4961 21.4682 48.4961 22.783C48.4961 24.0978 48.3048 24.6283 46.9625 24.6283Z" fill="#0A233F"/>
<path d="M63.4922 26.9972C63.3432 26.992 63.1948 27.0171 63.0557 27.0711C62.9166 27.125 62.7897 27.2066 62.6825 27.311C62.5754 27.4155 62.4902 27.5407 62.432 27.6791C62.3737 27.8175 62.3438 27.9663 62.3438 28.1166C62.3438 28.2669 62.3737 28.4157 62.432 28.5541C62.4902 28.6925 62.5754 28.8177 62.6825 28.9221C62.7897 29.0266 62.9166 29.1082 63.0557 29.1621C63.1948 29.216 63.3432 29.2412 63.4922 29.236C63.642 29.2427 63.7917 29.2188 63.9321 29.1655C64.0725 29.1123 64.2008 29.0309 64.3092 28.9263C64.4176 28.8217 64.5039 28.696 64.5628 28.5569C64.6218 28.4177 64.6522 28.2679 64.6522 28.1166C64.6522 27.9652 64.6218 27.8155 64.5628 27.6763C64.5039 27.5371 64.4176 27.4115 64.3092 27.3069C64.2008 27.2022 64.0725 27.1209 63.9321 27.0677C63.7917 27.0144 63.642 26.9905 63.4922 26.9972Z" fill="#0A233F"/>
<path d="M60.7774 26.9972C60.5599 27.0047 60.3494 27.0765 60.172 27.2038C59.9946 27.331 59.8582 27.508 59.7797 27.7129C59.7013 27.9177 59.6842 28.1413 59.7307 28.3558C59.7772 28.5703 59.8851 28.7663 60.0411 28.9195C60.1972 29.0726 60.3943 29.176 60.6081 29.217C60.822 29.258 61.043 29.2346 61.2438 29.1498C61.4446 29.0651 61.6162 28.9226 61.7374 28.7402C61.8586 28.5578 61.924 28.3435 61.9254 28.1239C61.9235 27.9738 61.8924 27.8256 61.8337 27.6877C61.7749 27.5497 61.6898 27.4249 61.5832 27.3202C61.4765 27.2155 61.3504 27.1331 61.2122 27.0777C61.0739 27.0223 60.9262 26.9949 60.7774 26.9972Z" fill="#0A233F"/>
<path d="M68.808 26.9972C68.6566 26.9905 68.5054 27.0146 68.3634 27.0681C68.2214 27.1215 68.0915 27.2032 67.9814 27.3083C67.8713 27.4134 67.7833 27.5398 67.7226 27.6799C67.6619 27.82 67.6297 27.971 67.6279 28.1239C67.6381 28.4306 67.7661 28.7213 67.9847 28.9347C68.2034 29.148 68.4957 29.2673 68.7999 29.2673C69.104 29.2673 69.3963 29.148 69.615 28.9347C69.8337 28.7213 69.9616 28.4306 69.9718 28.1239C69.9705 27.9723 69.9392 27.8224 69.8797 27.6832C69.8201 27.544 69.7336 27.4181 69.6252 27.3131C69.5168 27.2082 69.3886 27.1261 69.2482 27.0719C69.1079 27.0176 68.9582 26.9922 68.808 26.9972Z" fill="#0A233F"/>
<path d="M73.4851 23.64C73.4851 23.64 73.4719 24.1332 73.1672 24.1408H72.422C71.8262 23.6722 71.3872 23.0307 71.1641 22.3026C70.4369 19.8291 69.6934 18.8901 67.35 18.8426C66.4153 18.8408 65.4928 19.0571 64.6548 19.4747L65.1512 19.936C65.3071 20.2138 65.5425 20.4379 65.8264 20.5789C66.1104 20.7198 66.4298 20.7713 66.7432 20.7265C66.9014 20.7049 67.0611 20.696 67.2207 20.6999C68.3744 20.7247 68.8699 20.8401 69.4516 22.7027C69.613 23.2503 69.9143 23.7454 70.3252 24.1386H65.5535C64.6973 24.1589 63.8474 23.9879 63.0645 23.6378V18.8027H62.7093C62.3018 18.7947 61.9078 18.9501 61.6138 19.2349C61.3198 19.5196 61.1497 19.9104 61.1409 20.3215V23.636C60.4307 23.9885 59.6458 24.1604 58.8547 24.1368H58.5856V19.661C57.4055 19.0817 56.8797 18.8 55.6996 18.8C53 18.8 51.7355 20.3654 51.7355 22.6667C51.7355 24.9206 53 26.0628 55.9256 26.0628H56.662C56.5811 27.1718 55.8566 27.6327 54.6435 27.7205C54.1835 27.742 53.746 27.9278 53.4091 28.2447C53.0723 28.5616 52.8581 28.989 52.8048 29.4505C53.1358 29.4843 53.4684 29.4991 53.8011 29.4949C56.5653 29.4949 58.3737 28.8623 58.5698 26.0606H58.9734C60.0711 26.0605 61.1488 25.7643 62.095 25.2027C63.1211 25.7639 64.2694 26.0587 65.4365 26.0606H73.1843C74.6524 26.0606 75.107 25.6011 75.311 24.8887C75.3795 24.6369 75.4125 24.3766 75.4091 24.1155V15.486C74.9092 15.4759 74.4257 15.6664 74.065 16.0158C73.7044 16.3651 73.4959 16.8447 73.4855 17.349L73.4851 23.64ZM56.6611 24.1408H55.6174C54.1792 24.1408 53.6415 23.8303 53.6415 22.5607C53.6415 21.2615 54.1788 20.5415 55.5848 20.5415C55.7814 20.5267 55.9789 20.5539 56.1643 20.6214C56.3497 20.6889 56.5188 20.7952 56.6607 20.9332L56.6611 24.1408Z" fill="#0A233F"/>
<path d="M77.2452 17.349V26.0664C77.745 26.0764 78.2284 25.8858 78.5891 25.5365C78.9497 25.1871 79.1582 24.7076 79.1687 24.2033V15.486C78.6688 15.4759 78.1854 15.6664 77.8247 16.0158C77.464 16.3651 77.2556 16.8447 77.2452 17.349Z" fill="#0A233F"/>
</g>
<defs>
<clipPath id="clip0_361_220">
<rect width="130" height="48" fill="white" transform="translate(15 11)"/>
</clipPath>
</defs>
</svg>
