<svg width="130" height="47" viewBox="0 0 130 47" fill="none" xmlns="http://www.w3.org/2000/svg">
<path d="M129.961 33.8497H102.145V13.3779H115.581C123.924 14.0653 129.598 20.5073 129.975 28.7284C130.056 30.4265 129.908 32.1516 129.975 33.8497H129.961ZM119.476 24.82C118.654 23.7419 117.226 22.8254 115.905 22.5559C115.77 22.5289 115.015 22.4076 114.961 22.4076H111.161V24.82H119.476Z" fill="white"/>
<path fill-rule="evenodd" clip-rule="evenodd" d="M100.081 13.3779V33.8497H67.4395V24.3348H90.5664V13.3779H100.081Z" fill="white"/>
<path fill-rule="evenodd" clip-rule="evenodd" d="M55.7555 13.3779H65.3917V46.626H55.7555V13.3779Z" fill="white"/>
<path fill-rule="evenodd" clip-rule="evenodd" d="M74.0708 35.0483L75.3377 41.9217L76.4832 35.0483H83.4644V46.6117H79.246V39.7519L77.7501 46.5039L77.5075 46.6117L72.9252 46.6252L71.2945 39.5093V46.6117H67.0896V35.0483H74.0708Z" fill="white"/>
<path d="M76.9544 13.3779V22.7176C76.9544 22.7176 76.7926 22.8928 76.7792 22.8928H67.4395V13.3779H76.9544Z" fill="white"/>
<path d="M88.5188 13.3779V22.7176C88.5188 22.7176 88.3571 22.8928 88.3436 22.8928H79.0039V13.3779H88.5188Z" fill="white"/>
<path d="M108.519 41.5598C108.357 41.7215 108.6 43.0692 108.829 43.3657C109.301 43.9991 110.514 43.8239 110.837 43.0962C111.16 42.3684 110.904 42.5301 110.931 42.5301H115.15C115.338 44.363 113.64 46.4115 111.834 46.6137C110.877 46.7215 108.047 46.7215 107.171 46.4655C105.46 45.9668 104.435 44.3091 104.301 42.584C104.098 39.9829 104.355 36.8967 107.279 36.0476C108.128 35.805 110.648 35.805 111.578 35.8994C113.29 36.0881 114.934 37.5975 115.136 39.336C115.338 41.0746 115.204 40.8455 115.136 41.115C115.069 41.3846 114.692 41.5598 114.611 41.5598H108.532H108.519ZM110.931 40.3603C111.187 38.204 108.411 38.3118 108.519 40.3603H110.931Z" fill="white"/>
<path d="M88.7616 41.5592C88.7077 41.6132 88.7482 42.7452 88.7886 42.9204C88.9638 43.6886 90.0959 43.9851 90.6889 43.5404C91.1201 43.2169 91.1201 42.5161 91.1741 42.5161H95.3924C95.4194 44.3355 94.0043 46.2763 92.1714 46.5862C91.4301 46.7075 88.5056 46.7075 87.7643 46.5862C86.2144 46.3167 84.7319 44.7264 84.5567 43.1765C84.422 41.9905 84.4489 39.4164 84.8937 38.3382C85.3384 37.26 86.8074 36.0201 88.2225 35.8854C89.6376 35.7506 91.8614 35.7776 92.8587 36.1953C93.5595 36.4784 94.5434 37.3544 94.8938 38.0148C95.2711 38.729 95.7159 40.6293 95.1633 41.2493C94.6107 41.8692 94.7725 41.5458 94.732 41.5458H88.7751L88.7616 41.5592ZM91.1741 40.3598C91.4032 38.2708 88.4786 38.2708 88.7616 40.3598H91.1741Z" fill="white"/>
<path d="M120.797 35.8972V37.7031C121.08 37.6088 121.147 37.2853 121.336 37.0966C121.525 36.908 122.36 36.2476 122.643 36.1128C123.924 35.5063 125.918 35.9915 126.525 37.3392C126.579 37.4471 126.821 38.2018 126.821 38.2422V42.7031C126.821 42.7031 126.66 42.8783 126.646 42.8783H122.253V39.563C122.253 39.4686 121.835 39.2665 121.7 39.253C121.565 39.2395 120.797 39.4551 120.797 39.4956V46.598H116.215V35.8837H120.797V35.8972Z" fill="white"/>
<path d="M101.538 35.0491V36.2486C101.834 36.289 103.344 36.1138 103.344 36.4238V39.254H101.538V43.4723C101.834 43.5128 103.344 43.3376 103.344 43.6475V46.599H98.829C98.7885 46.599 98.2629 46.3564 98.1686 46.2891C98.0338 46.1947 97.6699 45.8308 97.5621 45.6961C97.4543 45.5613 97.0769 44.8335 97.0769 44.7257V39.2405H95.8774V36.4103C95.8774 36.1408 96.8478 36.2486 97.0769 36.2351V35.0356H101.538V35.0491Z" fill="white"/>
<path d="M9.27232 46.6137H0L6.75208 29.9963C7.02163 29.9559 6.94077 29.9963 7.02163 30.1581C8.27501 33.0556 10.2966 35.9263 11.5904 38.8373C11.8465 39.2282 12.0621 39.4169 12.5069 39.1204L17.4934 29.7133C18.5446 27.6513 19.3668 26.3575 19.1646 23.9047C19.1107 23.2308 18.8142 22.5839 18.6794 21.9235H20.5528L24.4072 29.1473C24.9868 29.5381 25.2698 29.026 25.5258 28.5812C26.6579 26.6944 27.5609 24.4842 28.6526 22.557C29.7442 20.6297 29.0434 21.9235 29.0973 21.9235H32.0488C31.9275 22.6378 31.6175 23.2982 31.5636 24.026C31.3884 26.1958 32.0623 27.3952 32.9922 29.2281L38.2214 39.1204C38.6661 39.4034 38.8818 39.2147 39.1378 38.8239C40.1351 37.3414 40.8629 35.3198 41.7794 33.7565L42.7632 32.0314L48.6662 46.6002H9.27232V46.6137Z" fill="white"/>
<path d="M24.6905 27.584C23.4237 24.9156 21.9412 22.3414 20.5665 19.7134C19.3131 17.3279 17.5206 14.363 16.5503 11.9236C14.6096 7.03139 17.6015 1.55967 22.6015 0.279339C28.7876 -1.31096 34.5963 4.1338 33.4372 10.4007C33.1407 11.991 32.0625 13.8104 31.3213 15.2659C29.3941 19.0395 27.3725 23.0288 25.297 26.708C23.2215 30.3873 24.9331 27.3954 24.677 27.584H24.6905ZM23.8145 3.40604C20.836 3.82383 18.8684 6.93705 19.394 9.80768C20.2565 14.4842 26.4965 15.8859 29.1919 12.0314C32.076 7.9074 28.7606 2.70522 23.8145 3.39256V3.40604Z" fill="white"/>
<path d="M37.5477 18.8252C42.3051 18.1648 45.8362 22.5044 44.138 26.9923C42.3186 30.4964 40.5261 34.0274 38.5989 37.4641C38.545 37.4641 38.1137 36.7228 38.0328 36.5881C36.1595 33.2727 34.5153 29.7956 32.8172 26.3859C31.8468 23.1109 34.1245 19.2969 37.5477 18.8252ZM38.1407 20.7524C35.6069 21.0624 33.9762 23.623 34.8253 26.0489C35.9574 29.27 40.3779 29.6608 42.0491 26.6958C43.6394 23.8926 41.3348 20.3616 38.1407 20.7389V20.7524Z" fill="white"/>
<path d="M11.0373 18.8243C15.9296 18.1504 19.4067 22.6383 17.6007 27.1936C15.7813 30.2934 14.3527 33.7435 12.5468 36.8298C10.7408 39.916 12.1559 37.4632 12.102 37.4632C10.2017 34.04 8.43622 30.5359 6.60332 27.0723C5.06692 23.73 7.37152 19.3364 11.0508 18.8243H11.0373ZM11.6438 20.7515C8.81359 21.0885 7.23675 24.3095 8.67882 26.7758C10.1209 29.2421 13.6115 29.3365 15.3366 27.0858C17.439 24.323 15.0535 20.3337 11.6438 20.7381V20.7515Z" fill="white"/>
<path d="M24.5416 4.37611C28.2748 4.06614 30.6198 8.70228 28.2478 11.5729C26.105 14.1875 21.9135 13.5945 20.7006 10.4543C19.5955 7.61063 21.5362 4.63218 24.5416 4.37611Z" fill="white"/>
<path d="M38.1406 21.8283C40.2834 21.5183 42.0894 23.5938 41.3616 25.6558C40.6339 27.7178 40.3778 27.2326 39.5018 27.5291C37.2241 28.2838 35.0543 26.114 35.7955 23.8229C36.119 22.7986 37.0759 21.99 38.1406 21.8283Z" fill="white"/>
<path d="M11.6447 21.8283C14.3941 21.4375 16.1461 24.672 14.2728 26.734C12.9385 28.203 10.6339 27.8526 9.60965 26.2084C8.58538 24.5642 9.63661 22.1113 11.6447 21.8148V21.8283Z" fill="white"/>
</svg>
