<svg width="150" height="45" viewBox="0 0 150 45" fill="none" xmlns="http://www.w3.org/2000/svg">
<rect x="0.5625" y="0.5625" width="148.875" height="43.875" rx="5.4375" fill="black"/>
<rect x="0.5625" y="0.5625" width="148.875" height="43.875" rx="5.4375" stroke="#A6A6A6" stroke-width="1.125"/>
<path d="M91.7166 21.6009V24.1783H90.1011V25.8685H91.7166V31.6116C91.7166 33.5727 92.6038 34.3571 94.8356 34.3571C95.2278 34.3571 95.6014 34.3104 95.9282 34.2544V32.5828C95.6481 32.6109 95.4706 32.6295 95.1625 32.6295C94.1633 32.6295 93.7244 32.1626 93.7244 31.098V25.8685H95.9282V24.1783H93.7244V21.6009H91.7166Z" fill="white"/>
<path d="M101.614 34.4972C104.583 34.4972 106.404 32.5081 106.404 29.2117C106.404 25.9339 104.574 23.9355 101.614 23.9355C98.6442 23.9355 96.8139 25.9339 96.8139 29.2117C96.8139 32.5081 98.6349 34.4972 101.614 34.4972ZM101.614 32.7136C99.8675 32.7136 98.887 31.4342 98.887 29.2117C98.887 27.0078 99.8675 25.7191 101.614 25.7191C103.351 25.7191 104.341 27.0078 104.341 29.2117C104.341 31.4249 103.351 32.7136 101.614 32.7136Z" fill="white"/>
<path d="M107.962 34.3011H109.97V28.2965C109.97 26.8678 111.044 25.9059 112.566 25.9059C112.921 25.9059 113.519 25.9713 113.687 26.0273V24.0476C113.472 23.9915 113.089 23.9635 112.79 23.9635C111.464 23.9635 110.334 24.6919 110.045 25.6911H109.895V24.1316H107.962V34.3011Z" fill="white"/>
<path d="M118.672 25.6444C120.157 25.6444 121.128 26.681 121.175 28.2778H116.039C116.151 26.6903 117.187 25.6444 118.672 25.6444ZM121.165 31.5556C120.792 32.3494 119.961 32.7883 118.747 32.7883C117.141 32.7883 116.104 31.6583 116.039 29.8747V29.7626H123.22V29.0623C123.22 25.8685 121.511 23.9355 118.681 23.9355C115.814 23.9355 113.993 25.9993 113.993 29.249C113.993 32.4988 115.777 34.4972 118.691 34.4972C121.016 34.4972 122.641 33.3766 123.098 31.5556H121.165Z" fill="white"/>
<path d="M78.5501 30.5457C78.7049 33.0428 80.7859 34.6399 83.8832 34.6399C87.1934 34.6399 89.2647 32.9654 89.2647 30.294C89.2647 28.1937 88.0838 27.0322 85.2189 26.3644L83.6799 25.9869C81.8603 25.561 81.1247 24.9899 81.1247 23.993C81.1247 22.7348 82.2668 21.912 83.98 21.912C85.606 21.912 86.7288 22.7154 86.932 24.0027H89.0421C88.9162 21.6507 86.8449 19.9956 84.009 19.9956C80.9601 19.9956 78.9276 21.6507 78.9276 24.1382C78.9276 26.1901 80.0793 27.4097 82.6056 28.0001L84.4058 28.4357C86.2545 28.8712 87.0676 29.51 87.0676 30.5747C87.0676 31.8136 85.7899 32.7138 84.0477 32.7138C82.1797 32.7138 80.8827 31.8717 80.6988 30.5457H78.5501Z" fill="white"/>
<path d="M57.7518 23.9635C56.3697 23.9635 55.1744 24.6546 54.5581 25.8125H54.4087V24.1316H52.4756V37.6816H54.4834V32.7603H54.6421C55.1744 33.8342 56.3231 34.4692 57.7705 34.4692C60.3386 34.4692 61.9728 32.4428 61.9728 29.2117C61.9728 25.9806 60.3386 23.9635 57.7518 23.9635ZM57.1822 32.6669C55.5013 32.6669 54.446 31.3408 54.446 29.221C54.446 27.0919 55.5013 25.7658 57.1915 25.7658C58.8911 25.7658 59.909 27.0639 59.909 29.2117C59.909 31.3689 58.8911 32.6669 57.1822 32.6669Z" fill="white"/>
<path d="M68.9982 23.9635C67.6161 23.9635 66.4208 24.6546 65.8045 25.8125H65.6551V24.1316H63.722V37.6816H65.7298V32.7603H65.8885C66.4208 33.8342 67.5694 34.4692 69.0169 34.4692C71.585 34.4692 73.2192 32.4428 73.2192 29.2117C73.2192 25.9806 71.585 23.9635 68.9982 23.9635ZM68.4286 32.6669C66.7477 32.6669 65.6924 31.3408 65.6924 29.221C65.6924 27.0919 66.7477 25.7658 68.4379 25.7658C70.1375 25.7658 71.1554 27.0639 71.1554 29.2117C71.1554 31.3689 70.1375 32.6669 68.4286 32.6669Z" fill="white"/>
<path d="M48.8734 34.3011H51.177L46.1342 20.3344H43.8016L38.7589 34.3011H40.985L42.2723 30.5941H47.5958L48.8734 34.3011ZM44.8566 22.8703H45.0212L47.0441 28.7744H42.824L44.8566 22.8703Z" fill="white"/>
<path d="M40.1075 9.79929V16.5369H42.5402C44.5479 16.5369 45.7105 15.2996 45.7105 13.1471C45.7105 11.0273 44.5386 9.79929 42.5402 9.79929H40.1075ZM41.1534 10.7518H42.4234C43.8195 10.7518 44.646 11.6389 44.646 13.1611C44.646 14.7066 43.8335 15.5844 42.4234 15.5844H41.1534V10.7518Z" fill="white"/>
<path d="M49.2713 16.635C50.7561 16.635 51.6666 15.6404 51.6666 13.9922C51.6666 12.3533 50.7514 11.3541 49.2713 11.3541C47.7865 11.3541 46.8713 12.3533 46.8713 13.9922C46.8713 15.6404 47.7818 16.635 49.2713 16.635ZM49.2713 15.7432C48.3981 15.7432 47.9079 15.1035 47.9079 13.9922C47.9079 12.8903 48.3981 12.2459 49.2713 12.2459C50.1397 12.2459 50.6347 12.8903 50.6347 13.9922C50.6347 15.0988 50.1397 15.7432 49.2713 15.7432Z" fill="white"/>
<path d="M59.4202 11.4522H58.4163L57.5105 15.3323H57.4311L56.3852 11.4522H55.4234L54.3775 15.3323H54.3028L53.3923 11.4522H52.3744L53.7752 16.5369H54.8071L55.853 12.7922H55.9323L56.9829 16.5369H58.0241L59.4202 11.4522Z" fill="white"/>
<path d="M60.5763 16.5369H61.5802V13.5627C61.5802 12.7689 62.0518 12.274 62.7942 12.274C63.5366 12.274 63.8914 12.6802 63.8914 13.4973V16.5369H64.8953V13.2451C64.8953 12.0358 64.2696 11.3541 63.135 11.3541C62.3693 11.3541 61.865 11.695 61.6175 12.2599H61.5428V11.4522H60.5763V16.5369Z" fill="white"/>
<path d="M66.4763 16.5369H67.4802V9.46777H66.4763V16.5369Z" fill="white"/>
<path d="M71.2557 16.635C72.7405 16.635 73.651 15.6404 73.651 13.9922C73.651 12.3533 72.7358 11.3541 71.2557 11.3541C69.7709 11.3541 68.8557 12.3533 68.8557 13.9922C68.8557 15.6404 69.7662 16.635 71.2557 16.635ZM71.2557 15.7432C70.3825 15.7432 69.8923 15.1035 69.8923 13.9922C69.8923 12.8903 70.3825 12.2459 71.2557 12.2459C72.1241 12.2459 72.6191 12.8903 72.6191 13.9922C72.6191 15.0988 72.1241 15.7432 71.2557 15.7432Z" fill="white"/>
<path d="M76.6421 15.7758C76.0958 15.7758 75.6989 15.5097 75.6989 15.0521C75.6989 14.6039 76.0164 14.3658 76.7168 14.3191L77.9588 14.2397V14.6646C77.9588 15.2949 77.3985 15.7758 76.6421 15.7758ZM76.3852 16.621C77.0529 16.621 77.6086 16.3315 77.9121 15.8225H77.9914V16.5369H78.958V13.063C78.958 11.9891 78.2389 11.3541 76.9642 11.3541C75.8109 11.3541 74.9892 11.9144 74.8864 12.7876H75.8576C75.9697 12.428 76.3572 12.2226 76.9175 12.2226C77.6039 12.2226 77.9588 12.5261 77.9588 13.063V13.502L76.5814 13.5813C75.372 13.656 74.6903 14.1837 74.6903 15.0988C74.6903 16.028 75.4047 16.621 76.3852 16.621Z" fill="white"/>
<path d="M82.3646 16.621C83.065 16.621 83.658 16.2895 83.9615 15.7338H84.0408V16.5369H85.0027V9.46777H83.9988V12.2599H83.9241C83.6486 11.6996 83.0603 11.3681 82.3646 11.3681C81.0806 11.3681 80.2541 12.386 80.2541 13.9922C80.2541 15.6031 81.0712 16.621 82.3646 16.621ZM82.6494 12.2693C83.4899 12.2693 84.0175 12.937 84.0175 13.9969C84.0175 15.0615 83.4946 15.7198 82.6494 15.7198C81.7996 15.7198 81.2907 15.0708 81.2907 13.9922C81.2907 12.923 81.8043 12.2693 82.6494 12.2693Z" fill="white"/>
<path d="M91.5125 16.635C92.9973 16.635 93.9078 15.6404 93.9078 13.9922C93.9078 12.3533 92.9926 11.3541 91.5125 11.3541C90.0277 11.3541 89.1125 12.3533 89.1125 13.9922C89.1125 15.6404 90.023 16.635 91.5125 16.635ZM91.5125 15.7432C90.6393 15.7432 90.1491 15.1035 90.1491 13.9922C90.1491 12.8903 90.6393 12.2459 91.5125 12.2459C92.381 12.2459 92.8759 12.8903 92.8759 13.9922C92.8759 15.0988 92.381 15.7432 91.5125 15.7432Z" fill="white"/>
<path d="M95.2366 16.5369H96.2405V13.5627C96.2405 12.7689 96.7121 12.274 97.4545 12.274C98.1969 12.274 98.5518 12.6802 98.5518 13.4973V16.5369H99.5556V13.2451C99.5556 12.0358 98.93 11.3541 97.7953 11.3541C97.0296 11.3541 96.5253 11.695 96.2779 12.2599H96.2032V11.4522H95.2366V16.5369Z" fill="white"/>
<path d="M104.179 10.1868V11.4755H103.371V12.3206H104.179V15.1922C104.179 16.1727 104.623 16.5649 105.739 16.5649C105.935 16.5649 106.121 16.5416 106.285 16.5136V15.6778C106.145 15.6918 106.056 15.7011 105.902 15.7011C105.402 15.7011 105.183 15.4677 105.183 14.9354V12.3206H106.285V11.4755H105.183V10.1868H104.179Z" fill="white"/>
<path d="M107.632 16.5369H108.636V13.5673C108.636 12.7969 109.094 12.2786 109.916 12.2786C110.625 12.2786 111.004 12.6895 111.004 13.502V16.5369H112.007V13.2545C112.007 12.0452 111.34 11.3588 110.256 11.3588C109.491 11.3588 108.954 11.6996 108.706 12.2693H108.627V9.46777H107.632V16.5369Z" fill="white"/>
<path d="M115.629 12.2086C116.371 12.2086 116.857 12.7269 116.88 13.5253H114.312C114.368 12.7315 114.886 12.2086 115.629 12.2086ZM116.876 15.1642C116.689 15.5611 116.273 15.7805 115.666 15.7805C114.863 15.7805 114.345 15.2155 114.312 14.3237V14.2677H117.903V13.9175C117.903 12.3206 117.048 11.3541 115.634 11.3541C114.2 11.3541 113.29 12.386 113.29 14.0109C113.29 15.6358 114.181 16.635 115.638 16.635C116.801 16.635 117.613 16.0747 117.842 15.1642H116.876Z" fill="white"/>
<path d="M27.8651 22.8385C27.8895 20.9473 28.9051 19.1579 30.5162 18.1674C29.4998 16.7158 27.7974 15.7954 26.0262 15.74C24.137 15.5417 22.3056 16.8704 21.3429 16.8704C20.3616 16.8704 18.8794 15.7597 17.2834 15.7925C15.203 15.8597 13.2635 17.0425 12.2513 18.8614C10.0756 22.6283 11.6985 28.1645 13.7827 31.2095C14.8254 32.7005 16.0441 34.366 17.6388 34.3069C19.1992 34.2422 19.782 33.3119 21.6656 33.3119C23.5317 33.3119 24.0785 34.3069 25.7055 34.2694C27.3799 34.2422 28.4349 32.7717 29.441 31.2666C30.1903 30.2042 30.7668 29.03 31.1493 27.7875C29.1815 26.9553 27.8674 24.975 27.8651 22.8385Z" fill="white"/>
<path d="M24.792 13.7375C25.705 12.6415 26.1547 11.2328 26.0458 9.81055C24.651 9.95704 23.3626 10.6237 22.4373 11.6776C21.5325 12.7074 21.0616 14.0913 21.1506 15.4592C22.5459 15.4735 23.9176 14.825 24.792 13.7375Z" fill="white"/>
</svg>
