<svg width="150" height="45" viewBox="0 0 150 45" fill="none" xmlns="http://www.w3.org/2000/svg">
<rect x="0.5625" y="0.5625" width="148.875" height="43.875" rx="5.4375" fill="black"/>
<rect x="0.5625" y="0.5625" width="148.875" height="43.875" rx="5.4375" stroke="#A6A6A6" stroke-width="1.125"/>
<path d="M76.653 24.4697C74.007 24.4697 71.8504 26.4824 71.8504 29.2544C71.8504 32.0095 74.007 34.039 76.653 34.039C79.3001 34.039 81.4567 32.0095 81.4567 29.2544C81.4556 26.4824 79.299 24.4697 76.653 24.4697ZM76.653 32.1557C75.2029 32.1557 73.953 30.9599 73.953 29.2555C73.953 27.5331 75.204 26.3552 76.653 26.3552C78.1031 26.3552 79.353 27.5331 79.353 29.2555C79.353 30.9587 78.1031 32.1557 76.653 32.1557ZM66.1747 24.4697C63.5287 24.4697 61.3721 26.4824 61.3721 29.2544C61.3721 32.0095 63.5287 34.039 66.1747 34.039C68.8219 34.039 70.9785 32.0095 70.9785 29.2544C70.9785 26.4824 68.8219 24.4697 66.1747 24.4697ZM66.1747 32.1557C64.7246 32.1557 63.4747 30.9599 63.4747 29.2555C63.4747 27.5331 64.7257 26.3552 66.1747 26.3552C67.6249 26.3552 68.8747 27.5331 68.8747 29.2555C68.8759 30.9587 67.6249 32.1557 66.1747 32.1557ZM53.712 25.939V27.9685H58.5697C58.4246 29.1104 58.0444 29.944 57.4639 30.5234C56.7574 31.2299 55.6515 32.0095 53.712 32.0095C50.7217 32.0095 48.384 29.5986 48.384 26.6084C48.384 23.6181 50.7217 21.2072 53.712 21.2072C55.3252 21.2072 56.5031 21.8417 57.3727 22.6574L58.8049 21.2252C57.5899 20.0654 55.9777 19.1777 53.712 19.1777C49.6159 19.1777 46.1722 22.5122 46.1722 26.6084C46.1722 30.7045 49.6159 34.039 53.712 34.039C55.9226 34.039 57.591 33.3134 58.8949 31.9544C60.2359 30.6134 60.6532 28.7279 60.6532 27.2057C60.6532 26.7355 60.6172 26.3001 60.5441 25.9379H53.712V25.939ZM104.683 27.5151C104.285 26.4464 103.07 24.4697 100.587 24.4697C98.1225 24.4697 96.0739 26.4092 96.0739 29.2544C96.0739 31.9364 98.1045 34.039 100.822 34.039C103.015 34.039 104.284 32.698 104.811 31.9184L103.179 30.8305C102.636 31.6281 101.892 32.1535 100.822 32.1535C99.7537 32.1535 98.9921 31.6641 98.5027 30.7034L104.901 28.0574L104.683 27.5151ZM98.1585 29.1104C98.1045 27.2609 99.5906 26.3192 100.66 26.3192C101.494 26.3192 102.201 26.7366 102.437 27.334L98.1585 29.1104ZM92.9576 33.7499H95.0591V19.6862H92.9576V33.7499ZM89.5129 25.5396H89.4409C88.9695 24.9771 88.0627 24.4697 86.922 24.4697C84.5291 24.4697 82.3365 26.5724 82.3365 29.2735C82.3365 31.9555 84.5291 34.0401 86.922 34.0401C88.0639 34.0401 88.9695 33.5327 89.4409 32.9534H89.5129V33.6419C89.5129 35.4722 88.5341 36.451 86.958 36.451C85.671 36.451 84.8734 35.5274 84.5471 34.7477L82.7167 35.5094C83.2421 36.7772 84.6371 38.3365 86.958 38.3365C89.4229 38.3365 91.5075 36.8864 91.5075 33.3516V24.7611H89.514V25.5396H89.5129ZM87.1031 32.1557C85.653 32.1557 84.4391 30.9407 84.4391 29.2735C84.4391 27.5871 85.653 26.3552 87.1031 26.3552C88.5341 26.3552 89.658 27.5871 89.658 29.2735C89.658 30.9407 88.5341 32.1557 87.1031 32.1557ZM114.532 19.6862H109.502V33.7499H111.6V28.4219H114.531C116.857 28.4219 119.145 26.7377 119.145 24.0546C119.145 21.3715 116.858 19.6862 114.532 19.6862ZM114.586 26.4644H111.6V21.6437H114.586C116.155 21.6437 117.046 22.9431 117.046 24.0546C117.046 25.1436 116.155 26.4644 114.586 26.4644ZM127.559 24.445C126.039 24.445 124.465 25.1144 123.814 26.5982L125.677 27.3756C126.075 26.5982 126.818 26.344 127.595 26.344C128.681 26.344 129.784 26.9954 129.802 28.153V28.2981C129.422 28.081 128.608 27.7559 127.613 27.7559C125.605 27.7559 123.56 28.8595 123.56 30.9216C123.56 32.8037 125.207 34.0154 127.052 34.0154C128.463 34.0154 129.241 33.382 129.729 32.6395H129.801V33.7251H131.829V28.333C131.83 25.8377 129.964 24.445 127.559 24.445ZM127.305 32.1524C126.619 32.1524 125.659 31.8081 125.659 30.9576C125.659 29.872 126.854 29.4557 127.885 29.4557C128.807 29.4557 129.242 29.6549 129.802 29.926C129.639 31.2299 128.518 32.1524 127.305 32.1524ZM139.211 24.7521L136.804 30.8496H136.732L134.235 24.7521H131.974L135.719 33.274L133.584 38.0147H135.773L141.545 24.7521H139.211ZM120.304 33.7499H122.402V19.6862H120.304V33.7499Z" fill="white"/>
<path d="M53.3453 11.5238C53.3453 12.4666 53.0663 13.217 52.5072 13.7772C51.8727 14.4432 51.0447 14.7762 50.0277 14.7762C49.0534 14.7762 48.2243 14.4387 47.5437 13.7637C46.8619 13.0876 46.5211 12.2506 46.5211 11.2516C46.5211 10.2515 46.8619 9.41445 47.5437 8.73945C48.2243 8.06333 49.0534 7.72583 50.0277 7.72583C50.5114 7.72583 50.9738 7.82033 51.4126 8.00821C51.8524 8.19721 52.2046 8.44808 52.4678 8.76196L51.8749 9.35596C51.4283 8.82158 50.8129 8.55496 50.0266 8.55496C49.3156 8.55496 48.7013 8.80471 48.1827 9.30421C47.6641 9.80371 47.4053 10.4528 47.4053 11.2505C47.4053 12.0481 47.6641 12.6972 48.1827 13.1967C48.7013 13.6962 49.3156 13.946 50.0266 13.946C50.7803 13.946 51.4092 13.6951 51.9121 13.1922C52.2383 12.8648 52.4273 12.4092 52.4779 11.8253H50.0266V11.0142H53.2969C53.3307 11.1908 53.3453 11.3607 53.3453 11.5238Z" fill="white"/>
<path d="M58.5317 8.70464H55.4582V10.8444H58.2302V11.6555H55.4582V13.7953H58.5317V14.6255H54.5908V7.87552H58.5317V8.70464Z" fill="white"/>
<path d="M62.1889 14.6255H61.3215V8.70464H59.436V7.87552H64.0744V8.70464H62.1889V14.6255Z" fill="white"/>
<path d="M67.4302 14.6255V7.87552H68.2976V14.6255H67.4302Z" fill="white"/>
<path d="M72.1442 14.6255H71.2768V8.70464H69.3913V7.87552H74.0297V8.70464H72.1442V14.6255Z" fill="white"/>
<path d="M82.81 13.7536C82.1463 14.4354 81.3217 14.7763 80.335 14.7763C79.3484 14.7763 78.5238 14.4354 77.8612 13.7536C77.1974 13.0719 76.8667 12.2371 76.8667 11.2505C76.8667 10.2639 77.1974 9.42913 77.8612 8.74738C78.5238 8.06563 79.3484 7.72363 80.335 7.72363C81.316 7.72363 82.1395 8.06676 82.8055 8.75188C83.4715 9.43701 83.8045 10.2695 83.8045 11.2505C83.8045 12.2371 83.4727 13.0719 82.81 13.7536ZM78.5013 13.1878C79.0008 13.694 79.6117 13.946 80.335 13.946C81.0584 13.946 81.6704 13.6929 82.1688 13.1878C82.6683 12.6815 82.9192 12.0358 82.9192 11.2505C82.9192 10.4653 82.6683 9.81951 82.1688 9.31326C81.6704 8.80701 81.0584 8.55501 80.335 8.55501C79.6117 8.55501 79.0008 8.80813 78.5013 9.31326C78.0029 9.81951 77.752 10.4653 77.752 11.2505C77.752 12.0358 78.0029 12.6815 78.5013 13.1878Z" fill="white"/>
<path d="M85.0218 14.6255V7.87552H86.0771L89.3576 13.1259H89.3947L89.3576 11.8254V7.87552H90.2249V14.6255H89.3193L85.8869 9.11977H85.8498L85.8869 10.4203V14.6255H85.0218Z" fill="white"/>
<path d="M53.3453 11.5238C53.3453 12.4666 53.0663 13.217 52.5072 13.7772C51.8727 14.4432 51.0447 14.7762 50.0277 14.7762C49.0534 14.7762 48.2243 14.4387 47.5437 13.7637C46.8619 13.0876 46.5211 12.2506 46.5211 11.2516C46.5211 10.2515 46.8619 9.41445 47.5437 8.73945C48.2243 8.06333 49.0534 7.72583 50.0277 7.72583C50.5114 7.72583 50.9738 7.82033 51.4126 8.00821C51.8524 8.19721 52.2046 8.44808 52.4678 8.76196L51.8749 9.35596C51.4283 8.82158 50.8129 8.55496 50.0266 8.55496C49.3156 8.55496 48.7013 8.80471 48.1827 9.30421C47.6641 9.80371 47.4053 10.4528 47.4053 11.2505C47.4053 12.0481 47.6641 12.6972 48.1827 13.1967C48.7013 13.6962 49.3156 13.946 50.0266 13.946C50.7803 13.946 51.4092 13.6951 51.9121 13.1922C52.2383 12.8648 52.4273 12.4092 52.4779 11.8253H50.0266V11.0142H53.2969C53.3307 11.1908 53.3453 11.3607 53.3453 11.5238Z" stroke="white" stroke-width="0.225" stroke-miterlimit="10"/>
<path d="M58.5317 8.70464H55.4582V10.8444H58.2302V11.6555H55.4582V13.7953H58.5317V14.6255H54.5908V7.87552H58.5317V8.70464Z" stroke="white" stroke-width="0.225" stroke-miterlimit="10"/>
<path d="M62.1889 14.6255H61.3215V8.70464H59.436V7.87552H64.0744V8.70464H62.1889V14.6255Z" stroke="white" stroke-width="0.225" stroke-miterlimit="10"/>
<path d="M67.4302 14.6255V7.87552H68.2976V14.6255H67.4302Z" stroke="white" stroke-width="0.225" stroke-miterlimit="10"/>
<path d="M72.1442 14.6255H71.2768V8.70464H69.3913V7.87552H74.0297V8.70464H72.1442V14.6255Z" stroke="white" stroke-width="0.225" stroke-miterlimit="10"/>
<path d="M82.81 13.7536C82.1463 14.4354 81.3217 14.7763 80.335 14.7763C79.3484 14.7763 78.5238 14.4354 77.8612 13.7536C77.1974 13.0719 76.8667 12.2371 76.8667 11.2505C76.8667 10.2639 77.1974 9.42913 77.8612 8.74738C78.5238 8.06563 79.3484 7.72363 80.335 7.72363C81.316 7.72363 82.1395 8.06676 82.8055 8.75188C83.4715 9.43701 83.8045 10.2695 83.8045 11.2505C83.8045 12.2371 83.4727 13.0719 82.81 13.7536ZM78.5013 13.1878C79.0008 13.694 79.6117 13.946 80.335 13.946C81.0584 13.946 81.6704 13.6929 82.1688 13.1878C82.6683 12.6815 82.9192 12.0358 82.9192 11.2505C82.9192 10.4653 82.6683 9.81951 82.1688 9.31326C81.6704 8.80701 81.0584 8.55501 80.335 8.55501C79.6117 8.55501 79.0008 8.80813 78.5013 9.31326C78.0029 9.81951 77.752 10.4653 77.752 11.2505C77.752 12.0358 78.0029 12.6815 78.5013 13.1878Z" stroke="white" stroke-width="0.225" stroke-miterlimit="10"/>
<path d="M85.0218 14.6255V7.87552H86.0771L89.3576 13.1259H89.3947L89.3576 11.8254V7.87552H90.2249V14.6255H89.3193L85.8869 9.11977H85.8498L85.8869 10.4203V14.6255H85.0218Z" stroke="white" stroke-width="0.225" stroke-miterlimit="10"/>
<g filter="url(#filter0_ii_248_7055)">
<path d="M11.7405 8.48056C11.4131 8.82706 11.2196 9.36481 11.2196 10.0612V34.9417C11.2196 35.6392 11.4131 36.1758 11.7405 36.5223L11.8237 36.6033L25.7614 22.6657V22.5014V22.3372L11.8237 8.39844L11.7405 8.48056Z" fill="url(#paint0_linear_248_7055)"/>
<path d="M30.4065 27.313L25.7614 22.6657V22.5014V22.3372L30.4076 17.6909L30.5122 17.7505L36.0169 20.878C37.5885 21.7713 37.5885 23.2327 36.0169 24.127L30.5122 27.2545L30.4065 27.313Z" fill="url(#paint1_linear_248_7055)"/>
<g filter="url(#filter1_i_248_7055)">
<path d="M30.5123 27.253L25.7603 22.501L11.7405 36.5219C12.258 37.0709 13.1141 37.1384 14.0783 36.5916L30.5123 27.253Z" fill="url(#paint2_linear_248_7055)"/>
</g>
<path d="M30.5123 17.7493L14.0783 8.41178C13.1141 7.8639 12.258 7.93253 11.7405 8.48153L25.7614 22.5024L30.5123 17.7493Z" fill="url(#paint3_linear_248_7055)"/>
</g>
<defs>
<filter id="filter0_ii_248_7055" x="11.2196" y="8.03369" width="25.976" height="28.9355" filterUnits="userSpaceOnUse" color-interpolation-filters="sRGB">
<feFlood flood-opacity="0" result="BackgroundImageFix"/>
<feBlend mode="normal" in="SourceGraphic" in2="BackgroundImageFix" result="shape"/>
<feColorMatrix in="SourceAlpha" type="matrix" values="0 0 0 0 0 0 0 0 0 0 0 0 0 0 0 0 0 0 127 0" result="hardAlpha"/>
<feOffset dy="-0.16875"/>
<feComposite in2="hardAlpha" operator="arithmetic" k2="-1" k3="1"/>
<feColorMatrix type="matrix" values="0 0 0 0 0 0 0 0 0 0 0 0 0 0 0 0 0 0 0.12 0"/>
<feBlend mode="normal" in2="shape" result="effect1_innerShadow_248_7055"/>
<feColorMatrix in="SourceAlpha" type="matrix" values="0 0 0 0 0 0 0 0 0 0 0 0 0 0 0 0 0 0 127 0" result="hardAlpha"/>
<feOffset dy="0.16875"/>
<feComposite in2="hardAlpha" operator="arithmetic" k2="-1" k3="1"/>
<feColorMatrix type="matrix" values="0 0 0 0 1 0 0 0 0 1 0 0 0 0 1 0 0 0 0.25 0"/>
<feBlend mode="normal" in2="effect1_innerShadow_248_7055" result="effect2_innerShadow_248_7055"/>
</filter>
<filter id="filter1_i_248_7055" x="11.7405" y="22.501" width="18.7718" height="14.4683" filterUnits="userSpaceOnUse" color-interpolation-filters="sRGB">
<feFlood flood-opacity="0" result="BackgroundImageFix"/>
<feBlend mode="normal" in="SourceGraphic" in2="BackgroundImageFix" result="shape"/>
<feColorMatrix in="SourceAlpha" type="matrix" values="0 0 0 0 0 0 0 0 0 0 0 0 0 0 0 0 0 0 127 0" result="hardAlpha"/>
<feOffset dy="-0.16875"/>
<feComposite in2="hardAlpha" operator="arithmetic" k2="-1" k3="1"/>
<feColorMatrix type="matrix" values="0 0 0 0 0 0 0 0 0 0 0 0 0 0 0 0 0 0 0.08 0"/>
<feBlend mode="normal" in2="shape" result="effect1_innerShadow_248_7055"/>
</filter>
<linearGradient id="paint0_linear_248_7055" x1="24.5259" y1="9.79794" x2="5.64613" y2="28.6777" gradientUnits="userSpaceOnUse">
<stop stop-color="#00A0FF"/>
<stop offset="0.0066" stop-color="#00A1FF"/>
<stop offset="0.2601" stop-color="#00BEFF"/>
<stop offset="0.5122" stop-color="#00D2FF"/>
<stop offset="0.7604" stop-color="#00DFFF"/>
<stop offset="1" stop-color="#00E3FF"/>
</linearGradient>
<linearGradient id="paint1_linear_248_7055" x1="38.0627" y1="22.5014" x2="10.8423" y2="22.5014" gradientUnits="userSpaceOnUse">
<stop stop-color="#FFE000"/>
<stop offset="0.4087" stop-color="#FFBD00"/>
<stop offset="0.7754" stop-color="#FFA500"/>
<stop offset="1" stop-color="#FF9C00"/>
</linearGradient>
<linearGradient id="paint2_linear_248_7055" x1="27.9316" y1="25.0816" x2="2.32831" y2="50.6849" gradientUnits="userSpaceOnUse">
<stop stop-color="#FF3A44"/>
<stop offset="1" stop-color="#C31162"/>
</linearGradient>
<linearGradient id="paint3_linear_248_7055" x1="8.20958" y1="0.199052" x2="19.6422" y2="11.6316" gradientUnits="userSpaceOnUse">
<stop stop-color="#32A071"/>
<stop offset="0.0685" stop-color="#2DA771"/>
<stop offset="0.4762" stop-color="#15CF74"/>
<stop offset="0.8009" stop-color="#06E775"/>
<stop offset="1" stop-color="#00F076"/>
</linearGradient>
</defs>
</svg>
