<svg width="553" height="264" viewBox="0 0 553 264" fill="none" xmlns="http://www.w3.org/2000/svg">
<path opacity="0.03" d="M495.604 138.263V184.666H475.153V67.8849H471.579V11.6117H465.325V0H442.988L435.84 2.67989V13.3985H427.799V31.2631H420.651V234.562H389.296V97.7125L386.883 92.0848H379.645V71.181H369.19C349.085 74.3968 340.238 92.0848 340.238 92.0848V198.637H315.551V163.409C312.669 162.954 299.907 163.409 299.907 163.409V157.492C255.857 151.119 222.098 160.223 222.098 160.223V214.603H186.662V131.338H181.302V121.558H175.941V109.823H141.095V127.426L136.628 129.382V191.152L124.183 204.125H111.299V84.1778L103.812 80.749V73.4628L75.8628 70.8911L53.2697 75.1772V84.1778V84.2656L44.9188 89.7497V213.605H25.454V123.294L12.727 109.823H0V264H21.9603H25.454H44.9188H63.3854H106.308H111.299H136.628H156.218H181.671H186.662H222.098H231.082H315.551H349.222H360.348H393.289H398.28H420.651H453.68H475.153H492.11H514.569H553V125.29H527.218L495.604 138.263Z" fill="#F18E42"/>
</svg>
