<svg width="17" height="203" viewBox="0 0 17 203" fill="none" xmlns="http://www.w3.org/2000/svg">
<path d="M17 203L10.2941 66.6174H11.8333V65.0966H16.5V54.754H10.3333V53.5374H11V50.1912H11.6667V47.7576H10.3333V28.2895H11.6667V25.2475H10.1667V16.528C10.1667 16.2953 9.95976 16.1065 9.70486 16.1065H9.5V10.4066C9.5 10.2195 9.39892 10.0552 9.24476 9.95307V6.08899C9.24476 5.85834 9.03989 5.67119 8.78702 5.67119H8.66701V0H8.33367V5.67119H8.21366C7.96079 5.67119 7.75592 5.85834 7.75592 6.08899V9.95307C7.60176 10.0552 7.50068 10.2195 7.50068 10.4066V16.1065H7.2958C7.0409 16.1065 6.83402 16.2953 6.83402 16.528V25.2475H5.33401V28.2895H6.66734V47.7576H5.33401V50.1912H6.00067V53.5374H6.66734V54.754H0.500682V65.0966H5.16733V66.6174H6.43846L0 203H17Z" fill="url(#paint0_linear_248_1602)"/>
<defs>
<linearGradient id="paint0_linear_248_1602" x1="8.49993" y1="203" x2="8.49993" y2="0" gradientUnits="userSpaceOnUse">
<stop stop-color="#F7EEE2"/>
<stop offset="1" stop-color="#D7D7D7"/>
</linearGradient>
</defs>
</svg>
