<svg width="35" height="419" viewBox="0 0 35 419" fill="none" xmlns="http://www.w3.org/2000/svg">
<path d="M34.9991 418.992L21.1932 137.498H24.3621V134.359H33.9697V113.012H21.2739V110.501H22.6465V103.595H24.019V98.5717H21.2739V58.3895H24.019V52.1109H20.9308V34.1137C20.9308 33.6335 20.5048 33.2437 19.9801 33.2437H19.5583V21.4793C19.5583 21.093 19.3502 20.754 19.0328 20.5431V12.5677C19.0328 12.0916 18.611 11.7053 18.0904 11.7053H17.8434V0H17.1571V11.7053H16.91C16.3894 11.7053 15.9676 12.0916 15.9676 12.5677V20.5431C15.6503 20.754 15.4422 21.093 15.4422 21.4793V33.2437H15.0204C14.4956 33.2437 14.0697 33.6335 14.0697 34.1137V52.1109H10.9815V58.3895H13.7265V98.5717H10.9815V103.595H12.354V110.501H13.7265V113.012H1.03079V134.359H10.6383V137.498H13.2553L0 418.992H34.9991Z" fill="url(#paint0_linear_248_1608)"/>
<defs>
<linearGradient id="paint0_linear_248_1608" x1="17.4994" y1="418.992" x2="17.4994" y2="0" gradientUnits="userSpaceOnUse">
<stop stop-color="#F7EEE2"/>
<stop offset="1" stop-color="#D7D7D7"/>
</linearGradient>
</defs>
</svg>
