<svg width="157" height="170" viewBox="0 0 157 170" fill="none" xmlns="http://www.w3.org/2000/svg">
<g opacity="0.7">
<path fill-rule="evenodd" clip-rule="evenodd" d="M147.715 39.1018C143.157 38.2365 132.271 34.327 128.612 32.283C126.144 30.8803 125.31 30.5538 124.744 30.7698C122.03 31.6748 126.207 35.1889 134.096 38.713L139.125 40.9432L136.305 40.8888C125.371 40.6764 119.521 41.8847 121.435 44.0325C123.433 46.3006 124.122 46.4392 130.568 46.1638C133.901 46.0252 136.744 45.9132 136.819 45.9429C136.895 45.9725 135.947 46.6071 134.645 47.3653C127.908 51.287 125.836 55.2414 130.575 55.0847C132.215 55.027 136.458 53.2335 141.774 50.3735C144.055 49.124 148.132 47.3089 150.8 46.2984C159.032 43.1367 158.132 41.0796 147.715 39.1018ZM110.234 42.4915C106.296 42.6119 96.9515 44.5952 96.3152 45.4392C94.2499 48.2596 99.4806 50.0875 105.571 48.711C107.881 48.172 111.398 47.45 113.414 47.1022C120.05 45.8954 117.528 42.2853 110.234 42.4915ZM87.2397 46.9593C82.8814 47.4836 73.802 51.5814 73.413 53.1341C72.7982 55.8226 77.2406 56.4242 81.6169 54.2895L88.2536 51.0719C90.2876 50.1191 91.9273 49.0558 91.9554 48.7607C92.0097 47.9514 88.9392 46.7499 87.2397 46.9593ZM66.881 57.0921C63.2035 57.6642 55.8977 67.3961 56.5884 70.7703C57.4902 75.0577 63.6022 70.4982 70.9472 59.9947C71.89 58.7023 69.1161 56.7426 66.881 57.0921ZM76.1825 65.4968C70.6588 64.8656 69.5874 65.1459 70.5682 66.8849C71.3264 68.1871 73.7759 69.1892 76.3161 69.1776C80.0661 69.2023 88.4927 73.811 89.658 72.9554C92.0185 71.1685 83.1815 66.2681 76.1825 65.4968ZM92.368 76.4202C92.1356 76.679 91.7961 77.7703 91.6758 78.8598C91.094 82.9165 87.1298 88.5787 83.3204 90.7167C80.3995 92.3717 80.1754 92.7212 81.3836 93.5437C86.4079 97.1272 95.5002 89.7555 96.3522 81.4329C96.6324 78.4823 93.8153 74.8444 92.368 76.4202ZM45.378 69.925C40.7956 69.7932 28.7346 79.5007 30.6418 81.777C32.3809 83.8127 35.3677 82.883 41.8803 78.3054C44.6479 76.3718 47.5886 74.3311 48.454 73.7953C50.839 72.2804 49.0226 69.9958 45.378 69.925ZM55.4199 77.2204C52.2583 78.0381 54.8744 85.0947 60.1114 89.8106C63.4148 92.7644 73.5873 96.2638 74.8318 94.8709C75.9114 93.6758 74.7098 92.7247 69.8124 90.9397C64.498 88.9914 62.7701 87.4847 61.5997 83.6605C59.9414 78.2901 58.204 76.4737 55.4199 77.2204ZM22.2122 87.7905C18.8809 88.1482 10.0195 101.075 11.4965 103.445C13.8224 107.11 17.1323 104.907 21.825 96.601C26.1518 88.8948 26.2309 87.3519 22.2122 87.7905ZM8.49008 110.794C5.87577 110.995 0.350717 125.227 1.96286 127.475C4.94979 131.573 7.89372 128.965 10.5853 119.964C13.033 111.697 12.7742 110.459 8.49008 110.794Z" fill="url(#paint0_linear_248_1416)"/>
</g>
<defs>
<linearGradient id="paint0_linear_248_1416" x1="153.767" y1="266.648" x2="-28.8978" y2="191.389" gradientUnits="userSpaceOnUse">
<stop stop-color="white"/>
<stop offset="1" stop-color="#F18E42"/>
</linearGradient>
</defs>
</svg>
