<svg width="139" height="11" viewBox="0 0 139 11" fill="none" xmlns="http://www.w3.org/2000/svg">
<path d="M96.6118 10.5001C80.7502 7.39059 63.0436 9.07781 46.9951 9.36338C42.3804 9.44558 37.659 9.99363 33.0488 9.75896C32.4475 9.72847 29.8241 9.61412 29.3321 9.00302C29.2678 8.92349 31.3135 8.6099 32.3073 8.47577C34.2397 8.21493 36.1713 8.0225 38.1021 7.74703C43.1783 7.02323 48.3433 6.6701 53.464 6.34477C66.6087 5.51033 90.1238 2.93882 102.971 6.56523C103.607 6.74489 101.639 6.53432 100.974 6.51763C99.8799 6.49043 98.7867 6.45108 97.6926 6.41956C94.1246 6.31716 90.5263 6.13502 86.9578 6.16366C75.4579 6.25535 63.9173 5.81484 52.42 6.2094C48.9605 6.32828 45.5121 6.57512 42.051 6.67051C40.0462 6.72573 40.1361 6.7725 38.0641 6.70801C37.1657 6.67999 34.6747 6.92784 35.3852 6.42285C36.6366 5.5332 40.5477 5.75572 42.0604 5.5742C48.9673 4.74636 55.857 3.66529 62.7991 3.08448C80.5992 1.59526 98.7202 1.59176 116.561 2.21481C123.859 2.46967 131.233 1.48381 138.5 2.28034C120.867 0.192181 102.539 0.488661 84.8092 0.549029C64.8473 0.61702 44.9078 0.621553 24.9455 1.00725C16.7502 1.16548 8.72021 2.59655 0.5 2.49209" stroke="url(#paint0_linear_248_1418)" stroke-miterlimit="1.5" stroke-linecap="round" stroke-linejoin="round"/>
<defs>
<linearGradient id="paint0_linear_248_1418" x1="233.786" y1="15.8532" x2="14.9607" y2="-48.5975" gradientUnits="userSpaceOnUse">
<stop stop-color="white"/>
<stop offset="1" stop-color="#F18E42"/>
</linearGradient>
</defs>
</svg>
