<svg width="164" height="59" viewBox="0 0 164 59" fill="none" xmlns="http://www.w3.org/2000/svg">
<path d="M163.952 42.7028H128.859V16.8771H145.81C156.335 17.7442 163.492 25.871 163.969 36.2421C164.071 38.3843 163.884 40.5605 163.969 42.7028H163.952ZM150.724 31.3116C149.687 29.9514 147.885 28.7953 146.218 28.4553C146.048 28.4213 145.096 28.2683 145.028 28.2683H140.234V31.3116H150.724Z" fill="#F18E42"/>
<path fill-rule="evenodd" clip-rule="evenodd" d="M126.257 16.8771V42.7028H85.0776V30.6995H114.253V16.8771H126.257Z" fill="#F18E42"/>
<path fill-rule="evenodd" clip-rule="evenodd" d="M70.3376 16.8771H82.4941V58.8204H70.3376V16.8771Z" fill="#F18E42"/>
<path fill-rule="evenodd" clip-rule="evenodd" d="M93.4434 44.2155L95.0416 52.8864L96.4868 44.2155H105.294V58.803H99.9722V50.1491L98.0849 58.667L97.7789 58.803L91.9982 58.82L89.941 49.8431V58.803H84.6364V44.2155H93.4434Z" fill="#F18E42"/>
<path d="M97.0811 16.8771V28.6593C97.0811 28.6593 96.877 28.8803 96.86 28.8803H85.0776V16.8771H97.0811Z" fill="#F18E42"/>
<path d="M111.67 16.8771V28.6593C111.67 28.6593 111.466 28.8803 111.449 28.8803H99.6666V16.8771H111.67Z" fill="#F18E42"/>
<path d="M136.901 52.4297C136.697 52.6337 137.003 54.3339 137.292 54.7079C137.887 55.507 139.417 55.286 139.825 54.3679C140.233 53.4498 139.91 53.6538 139.944 53.6538H145.266C145.504 55.9661 143.361 58.5503 141.083 58.8053C139.876 58.9414 136.305 58.9414 135.2 58.6183C133.041 57.9893 131.749 55.898 131.579 53.7218C131.324 50.4405 131.647 46.5471 135.336 45.476C136.408 45.1699 139.587 45.1699 140.76 45.289C142.919 45.527 144.994 47.4312 145.249 49.6244C145.504 51.8176 145.334 51.5286 145.249 51.8686C145.164 52.2087 144.687 52.4297 144.585 52.4297H136.918H136.901ZM139.944 50.9165C140.267 48.1963 136.765 48.3323 136.901 50.9165H139.944Z" fill="#F18E42"/>
<path d="M111.976 52.4286C111.908 52.4966 111.959 53.9248 112.01 54.1458C112.231 55.1149 113.66 55.4889 114.408 54.9279C114.952 54.5198 114.952 53.6357 115.02 53.6357H120.341C120.375 55.931 118.59 58.3792 116.278 58.7703C115.343 58.9233 111.653 58.9233 110.718 58.7703C108.763 58.4302 106.893 56.424 106.672 54.4688C106.502 52.9727 106.536 49.7253 107.097 48.3652C107.658 47.005 109.511 45.4409 111.296 45.2709C113.081 45.1008 115.887 45.1348 117.145 45.6619C118.029 46.0189 119.27 47.1241 119.712 47.9571C120.188 48.8582 120.749 51.2555 120.052 52.0376C119.355 52.8196 119.559 52.4116 119.508 52.4116H111.993L111.976 52.4286ZM115.02 50.9154C115.309 48.2802 111.619 48.2802 111.976 50.9154H115.02Z" fill="#F18E42"/>
<path d="M152.39 45.2861V47.5643C152.747 47.4453 152.832 47.0373 153.07 46.7993C153.308 46.5612 154.362 45.7281 154.719 45.5581C156.334 44.793 158.851 45.4051 159.616 47.1053C159.684 47.2413 159.99 48.1934 159.99 48.2444V53.872C159.99 53.872 159.786 54.093 159.769 54.093H154.226V49.9106C154.226 49.7916 153.699 49.5365 153.529 49.5195C153.359 49.5025 152.39 49.7746 152.39 49.8256V58.7855H146.609V45.2691H152.39V45.2861Z" fill="#F18E42"/>
<path d="M128.094 44.2162V45.7294C128.468 45.7804 130.372 45.5593 130.372 45.9504V49.5208H128.094V54.8423C128.468 54.8933 130.372 54.6723 130.372 55.0633V58.7867H124.676C124.625 58.7867 123.962 58.4807 123.843 58.3957C123.673 58.2767 123.214 57.8176 123.078 57.6476C122.942 57.4776 122.466 56.5595 122.466 56.4235V49.5038H120.953V45.9334C120.953 45.5933 122.177 45.7294 122.466 45.7124V44.1992H128.094V44.2162Z" fill="#F18E42"/>
<path d="M11.6974 58.804H0L8.51801 37.8409C8.85805 37.7899 8.75604 37.8409 8.85805 38.0449C10.4392 41.7003 12.9895 45.3217 14.6217 48.994C14.9448 49.4871 15.2168 49.7251 15.7779 49.3511L22.0686 37.4839C23.3948 34.8826 24.4319 33.2504 24.1769 30.1561C24.1089 29.306 23.7348 28.4899 23.5648 27.6569H25.9281L30.7907 36.7698C31.5217 37.2628 31.8788 36.6168 32.2018 36.0557C33.63 33.6755 34.7691 30.8872 36.1463 28.4559C37.5235 26.0247 36.6393 27.6569 36.7074 27.6569H40.4308C40.2778 28.5579 39.8867 29.391 39.8187 30.3091C39.5977 33.0464 40.4478 34.5596 41.6209 36.8718L48.2177 49.3511C48.7788 49.7081 49.0508 49.4701 49.3739 48.977C50.632 47.1068 51.5501 44.5566 52.7062 42.5844L53.9474 40.4082L61.3943 58.787H11.6974V58.804Z" fill="#F18E42"/>
<path d="M31.1478 34.7979C29.5496 31.4316 27.6794 28.1842 25.9452 24.8689C24.364 21.8596 22.1027 18.1192 20.8786 15.0419C18.4303 8.87027 22.2047 1.96756 28.5125 0.352393C36.3164 -1.65381 43.6443 5.21489 42.1821 13.1207C41.8081 15.1269 40.4479 17.4221 39.5128 19.2583C37.0815 24.0188 34.5312 29.0513 31.9129 33.6928C29.2946 38.3343 31.4538 34.5599 31.1308 34.7979H31.1478ZM30.0427 4.2968C26.2852 4.82385 23.8029 8.75125 24.466 12.3726C25.5541 18.2722 33.4261 20.0404 36.8265 15.1779C40.4649 9.97538 36.2824 3.41271 30.0427 4.2798V4.2968Z" fill="#F18E42"/>
<path d="M47.3678 23.7475C53.3695 22.9144 57.824 28.3889 55.6817 34.0505C53.3865 38.471 51.1252 42.9254 48.6939 47.2609C48.6259 47.2609 48.0818 46.3258 47.9798 46.1558C45.6166 41.9733 43.5423 37.5869 41.4001 33.2854C40.1759 29.154 43.0492 24.3425 47.3678 23.7475ZM48.1158 26.1787C44.9195 26.5697 42.8622 29.8001 43.9334 32.8604C45.3615 36.9238 50.9382 37.4169 53.0464 33.6765C55.0527 30.1401 52.1453 25.6857 48.1158 26.1617V26.1787Z" fill="#F18E42"/>
<path d="M13.9241 23.7465C20.0958 22.8964 24.4824 28.558 22.2041 34.3046C19.9088 38.215 18.1066 42.5674 15.8283 46.4608C13.5501 50.3542 15.3353 47.2599 15.2673 47.2599C12.87 42.9415 10.6427 38.521 8.33043 34.1516C6.3922 29.9351 9.29955 24.3926 13.9411 23.7465H13.9241ZM14.6892 26.1778C11.1188 26.6028 9.12953 30.6662 10.9487 33.7775C12.768 36.8889 17.1715 37.0079 19.3477 34.1686C22.0001 30.6832 18.9907 25.6507 14.6892 26.1608V26.1778Z" fill="#F18E42"/>
<path d="M30.96 5.52158C35.6696 5.13053 38.6279 10.9791 35.6356 14.6005C32.9322 17.8988 27.6446 17.1508 26.1144 13.1894C24.7203 9.60199 27.1686 5.84461 30.96 5.52158Z" fill="#F18E42"/>
<path d="M48.1157 27.537C50.819 27.146 53.0973 29.7643 52.1792 32.3655C51.2611 34.9668 50.938 34.3547 49.8329 34.7288C46.9596 35.6809 44.2222 32.9436 45.1573 30.0533C45.5654 28.7612 46.7725 27.7411 48.1157 27.537Z" fill="#F18E42"/>
<path d="M14.6904 27.5377C18.1588 27.0447 20.3691 31.1251 18.0058 33.7264C16.3226 35.5796 13.4153 35.1375 12.1231 33.0633C10.831 30.9891 12.1571 27.8948 14.6904 27.5207V27.5377Z" fill="#F18E42"/>
</svg>
